<svg xmlns="http://www.w3.org/2000/svg" viewBox="0 0 35.5 60"><title>logo elías</title><path d="M611.9,409.8a2.5,2.5,0,0,0-3.4-.8,60.7,60.7,0,0,0-5.5,4.3c-.1-3.1-.2-5.3-.2-5.6h0v-.2c0-.1,0-.2-.1-.2v-.3c-.1,0-.1-.1-.1-.2s-.1-.1-.1-.2l-.2-.2a.1.1,0,0,0-.1-.1l-.2-.3h-.1l-.3-.3h-.1a2.5,2.5,0,0,0-1.3-.3A2.3,2.3,0,0,0,598,407h0c-.1.1-.1.2-.1.4h-.1a4.3,4.3,0,0,1-4.4,4,4.1,4.1,0,0,1-3.5-2.5l-.4-.8a11.9,11.9,0,0,0,6.7-2.4c3-2,4.5-4.4,4.7-7a7.9,7.9,0,0,0-2.3-5.6,7.5,7.5,0,0,0-5.3-2.1,8.7,8.7,0,0,0-6.4,3.1,13.4,13.4,0,0,0-3.2,7.7v.3a23.4,23.4,0,0,1-3-1.4,2.4,2.4,0,0,0-3.4.7,2.6,2.6,0,0,0,.7,3.5,24.7,24.7,0,0,0,6,2.5,3.6,3.6,0,0,0,.2,1c1.1,3.6,3.9,8,9,8h.3a9.9,9.9,0,0,0,4.5-1.2v2.8a48.8,48.8,0,0,0-9.2,13.9c-3,7-3.4,12.3-1.3,15.7a6.4,6.4,0,0,0,4.7,3.3h1a6.6,6.6,0,0,0,3.6-1.1c2.5-1.6,4.3-4.9,5.2-9.7s1-12.1,1-19.2v-1h.1a61.7,61.7,0,0,1,8.1-6.8A2.4,2.4,0,0,0,611.9,409.8Zm-23.2-6.9a9.1,9.1,0,0,1,1.8-5.3,4.1,4.1,0,0,1,2.8-1.5h0a3.1,3.1,0,0,1,1.8.7h.1a2.6,2.6,0,0,1,.7,1.6c-.1,1-1,2.1-2.6,3.3a8.1,8.1,0,0,1-4.7,1.4A.4.4,0,0,0,588.7,402.9Zm9.3,23h0v1.1a87.5,87.5,0,0,1-.9,12.2c-1,5.6-3.1,6.8-3.9,6.8h-.3a2.3,2.3,0,0,1-1.2-1c-.5-.8-1.4-3.7,1.7-11.2a37,37,0,0,1,4.6-8Z" transform="translate(-576.9 -391.1)" style="fill:#ff6b5b"/><path d="M603,421.4l-2.3,2.5a41.8,41.8,0,0,0-2.7,3.6V426h0a26,26,0,0,1,2.4-3.1,37.3,37.3,0,0,1,2.6-2.7Z" transform="translate(-576.9 -391.1)" style="opacity:0.30000000000000004"/><path d="M589.5,408.2h-2.7a18.9,18.9,0,0,1-2.8-.6,3.6,3.6,0,0,0,.2,1l2.7.4a17.2,17.2,0,0,0,3,.1Z" transform="translate(-576.9 -391.1)" style="opacity:0.30000000000000004"/><path d="M588.7,402.9a.4.4,0,0,1-.1.3l-2.4-.2a14.3,14.3,0,0,1-2.5-.8v-.3l2.6.8A11.5,11.5,0,0,0,588.7,402.9Z" transform="translate(-576.9 -391.1)" style="opacity:0.1"/><path d="M603,412.8l-2.7,2.3a27.1,27.1,0,0,1-2.3,2.4v.6s1.6-1.8,2.4-2.5a33.6,33.6,0,0,1,2.6-2.3Z" transform="translate(-576.9 -391.1)" style="opacity:0.1"/></svg>