<svg id="Capa_1" data-name="Capa 1" xmlns="http://www.w3.org/2000/svg" viewBox="0 0 35.44 60"><path d="M35.06,18.67a2.46,2.46,0,0,0-3.5-.7,42.61,42.61,0,0,0-5.49,4.29c0-6.79-.5-6.89-1.1-7.38a2.35,2.35,0,0,0-1.59-.6A2.5,2.5,0,0,0,21,16.47a4.52,4.52,0,0,1-4.49,4A4.2,4.2,0,0,1,13,18c-.1-.3-.29-.5-.39-.8a12.89,12.89,0,0,0,6.78-2.29c2.9-2.1,4.5-4.4,4.6-7a7.48,7.48,0,0,0-2.2-5.59A8,8,0,0,0,16.39,0C14.09,0,12,1.1,10,3.09a13.36,13.36,0,0,0-3.2,7.69v.3a13.85,13.85,0,0,1-3-1.4,2.45,2.45,0,0,0-3.39.8A2.5,2.5,0,0,0,1.21,14,25.34,25.34,0,0,0,7.1,16.47l.3.9c1.1,3.6,3.8,8,9,8h.2a11.39,11.39,0,0,0,4.49-1.1v2.79A48.74,48.74,0,0,0,11.9,40.93c-2.9,7-3.4,12.28-1.3,15.68a6.88,6.88,0,0,0,4.79,3.29c.2,0,.5.1,1,.1A6.55,6.55,0,0,0,20,58.9c2.6-1.6,4.3-4.89,5.29-9.78.8-4.1,1-12.08,1-19.07V29h0l.1-.1a62.39,62.39,0,0,1,8.09-6.79A2.57,2.57,0,0,0,35.06,18.67ZM11.8,11.78a8.62,8.62,0,0,1,1.89-5.29,4.9,4.9,0,0,1,2.7-1.6h.1a3.07,3.07,0,0,1,1.8.7l.1.1a3,3,0,0,1,.69,1.7c-.1,1-1,2.09-2.49,3.19A8.07,8.07,0,0,1,11.9,12C11.8,12,11.8,11.88,11.8,11.78Zm9.28,23.06h0V36a74.15,74.15,0,0,1-.9,12.18C19.08,53.81,17.09,55,16.29,55H16a2.47,2.47,0,0,1-1.2-.9c-.5-.9-1.5-3.79,1.7-11.18a39.57,39.57,0,0,1,4.59-8.09Z" style="fill:#4f46e5"/><path d="M26.17,30.3a23.23,23.23,0,0,0-2.3,2.5,41.77,41.77,0,0,0-2.7,3.6V34.9h0a32.88,32.88,0,0,1,2.4-3.2,37.32,37.32,0,0,1,2.6-2.7Z" style="isolation:isolate;opacity:0.30000001192092896"/><path d="M12.57,17.1s-1.3,0-2.7-.1a26,26,0,0,1-2.8-.5l.3.9a20.07,20.07,0,0,0,2.6.5,8.48,8.48,0,0,0,3,0Z" style="isolation:isolate;opacity:0.30000001192092896"/><path d="M11.8,11.78v.3a8.79,8.79,0,0,1-2.4-.2,14.31,14.31,0,0,1-2.5-.8v-.3a15.12,15.12,0,0,0,2.6.7A7.52,7.52,0,0,0,11.8,11.78Z" style="isolation:isolate;opacity:0.10000000149011612"/><path d="M26.07,21.8c-.2.2-2,1.8-2.6,2.3s-2,2-2.3,2.4V27s1.5-1.7,2.4-2.5l2.5-2.3Z" style="isolation:isolate;opacity:0.10000000149011612"/></svg>