<svg xmlns="http://www.w3.org/2000/svg" viewBox="0 0 149.04 40"><g id="Layer_2" data-name="Layer 2"><g id="Logo_Netex" data-name="Logo Netex"><g id="Group_13661" data-name="Group 13661"><g id="Group_1" data-name="Group 1"><path id="Path_2" data-name="Path 2" d="M22.89,25.85,21,25.34l-4.52,6c-.46-.14-1-.23-1.44-.37l1.82-6.75-1.77-.46L13.3,30.51l-1.44-.42-.93-7.5-1.82-.51L10,29.53c-1.44-.42-2.88-.84-4.28-1.3a10.1,10.1,0,0,0,9.78,7.54,9.92,9.92,0,0,0,7.21-3.07c-1.44-.28-2.87-.61-4.28-1Z" style="fill:#312e81"/><path id="Path_3" data-name="Path 3" d="M21,25.37l-1.72,2.28,1.67.7,1.91-2.47Z" style="fill:#312e81;isolation:isolate;opacity:0.27000001072883606"/><path id="Path_4" data-name="Path 4" d="M9,22.17l.18,1.3,1.87.8-.19-1.59Z" style="fill:#312e81;isolation:isolate;opacity:0.27000001072883606"/><path id="Path_5" data-name="Path 5" d="M32.15,12.57l-.32-.19V12a5.89,5.89,0,0,0-4.38-5.51A5.34,5.34,0,0,0,26,6.27H25.5l-.19-.42A10.35,10.35,0,0,0,18.65.34a10.2,10.2,0,0,0-11,4.12,1.14,1.14,0,0,0-.18.32,1.57,1.57,0,0,0-.19.33s0,.09-.09.18A1.35,1.35,0,0,1,7,5.62s0,.09-.09.18l-.14.33-.37.09a7.46,7.46,0,0,0-6.1,5.56,7.75,7.75,0,0,0,5.48,9.49h0L26,26.64a7.78,7.78,0,0,0,6-.78,7.48,7.48,0,0,0,3.64-4.73A7.63,7.63,0,0,0,32.15,12.57Zm-1.4,6.8a4.59,4.59,0,0,1-5.65,3.22l-.07,0L19.16,21l-6.37-1.72L8.37,18.12A4.55,4.55,0,0,1,5.1,12.56v0A4.3,4.3,0,0,1,10,9V9s.05-.09.05-.14v0s0,0,0-.1.05-.09.05-.13a1.16,1.16,0,0,1,.09-.19V8.26s.05-.09.05-.14,0,0,0-.09,0-.09,0-.14v0s0,0,0-.09a.11.11,0,0,1,.05-.09s0,0,0-.1l.1-.09s0,0,0-.09a.19.19,0,0,1,.05-.1s0-.09.09-.14.27-.4.42-.6c.05,0,.05-.09.1-.09s.23-.28.37-.42l.09-.09c.28-.28.61-.51.88-.74a.19.19,0,0,1,.1,0,0,0,0,0,0,0,0h0a.19.19,0,0,1,.1-.05S12.93,5,13,5a3.8,3.8,0,0,1,.79-.37l.09,0c.05,0,.09,0,.19,0s.14,0,.18,0,.1,0,.1,0,.14,0,.23,0l.65-.14h.14c.14,0,.28-.05.37-.05H16a8.84,8.84,0,0,1,1.91.24,6.47,6.47,0,0,1,4,2.87,7.21,7.21,0,0,1,.65,1.34s0,.09,0,.14v0s0,0,.05.1.05.09.05.14,0,0,.05.09,0,.09,0,.09v.14a3.13,3.13,0,0,1,2-.09,3.91,3.91,0,0,1,2.51,2.17,3,3,0,0,1,.09,2v0h.05a4.67,4.67,0,0,1,3.45,5.63,1.46,1.46,0,0,1,0,.2Z" style="fill:#312e81"/><path id="Path_6" data-name="Path 6" d="M15.07,23.8l-.51,1.9,1.72.7.56-2.14Z" style="fill:#312e81;isolation:isolate;opacity:0.27000001072883606"/></g><path id="Path_1" data-name="Path 1" d="M46.68,8.79h5.16v2.52a12.41,12.41,0,0,1-.09,1.49h.09a8.43,8.43,0,0,1,7.68-4.52c4.8,0,7.54,2.52,7.54,8.24V30.44H61.71V17.59c0-2.6-.7-4.42-3.44-4.42a6,6,0,0,0-5.82,4.42,9.45,9.45,0,0,0-.37,2.89V30.4h-5.4Z" style="fill:#312e81"/><path id="Path_2-2" data-name="Path 2-2" d="M80.8,8.3c6.28,0,9.68,4.49,9.68,10.18,0,.65-.14,2.08-.14,2.08h-15c.33,3.75,3.31,5.69,6.57,5.69a10.89,10.89,0,0,0,6.28-2.36l2.1,3.84a13.86,13.86,0,0,1-8.75,3.06c-7.22,0-11.74-5.14-11.74-11.25C69.72,12.93,74.33,8.3,80.8,8.3ZM85,16.91c-.1-2.92-1.91-4.49-4.33-4.49a5,5,0,0,0-5.22,4.49Z" style="fill:#312e81"/><path id="Path_3-2" data-name="Path 3-2" d="M117.2,8.3c6.28,0,9.68,4.49,9.68,10.18,0,.65-.14,2.08-.14,2.08h-15c.33,3.75,3.31,5.69,6.57,5.69a10.89,10.89,0,0,0,6.28-2.36l2.1,3.84a13.86,13.86,0,0,1-8.75,3.06c-7.22,0-11.74-5.14-11.74-11.25C106.12,12.93,110.73,8.3,117.2,8.3Zm4.19,8.61c-.1-2.92-1.91-4.49-4.33-4.49a5,5,0,0,0-5.22,4.49Z" style="fill:#312e81"/><path id="Path_4-2" data-name="Path 4-2" d="M94.6,13.42H91.81V8.86h2.93v-6H100v6h4.93v4.56H100v8.43c0,3.58,2.79,4,4.28,4a4.59,4.59,0,0,0,1-.1v4.7a8.5,8.5,0,0,1-1.67.14c-3,0-9-.88-9-8.14V13.42Z" style="fill:#312e81"/><path id="Path_5-2" data-name="Path 5-2" d="M135.26,19.45l-3.59-5.36c-.42-.65-.74-.7-1.67-.7h-1.59V8.86h3.78a3.35,3.35,0,0,1,3.53,2l2.14,3.52.7,1.39h.1a15.44,15.44,0,0,1,.7-1.39l2.14-3.52a3.35,3.35,0,0,1,3.53-2h3.72v4.53h-1.53c-.89,0-1.21.09-1.68.7l-3.63,5.36L149,30.32h-6l-3.77-6a9.71,9.71,0,0,1-.61-1.15h-.09a10,10,0,0,1-.65,1.15l-3.73,6h-6Z" style="fill:#312e81"/><path id="Path_6-2" data-name="Path 6-2" d="M46.7,35.86h.75v4H46.7Z" style="fill:#312e81"/><path id="Path_7" data-name="Path 7" d="M48.46,35.86h.75l1.53,2.33c.14.23.33.65.33.65,0-.22,0-.43,0-.65V35.86h.75v4H51l-1.53-2.33c-.12-.21-.23-.43-.33-.65,0,.22,0,.43.05.65v2.33h-.75Z" style="fill:#312e81"/><path id="Path_8" data-name="Path 8" d="M52.82,35.86h.75l1.53,2.33c.14.23.33.65.33.65a4.74,4.74,0,0,1,0-.65V35.86h.75v4h-.75l-1.54-2.33c-.11-.21-.22-.43-.32-.65,0,.22,0,.43,0,.65v2.33h-.75Z" style="fill:#312e81"/><path id="Path_9" data-name="Path 9" d="M59,35.77a2.12,2.12,0,1,1-2.1,2.14v0a2,2,0,0,1,2-2.09A.33.33,0,0,1,59,35.77Zm0,3.53a1.42,1.42,0,1,0-1.35-1.49v0a1.34,1.34,0,0,0,1.24,1.44Z" style="fill:#312e81"/><path id="Path_10" data-name="Path 10" d="M61.26,35.86h.79l.89,2.65a4.15,4.15,0,0,1,.14.61s.09-.37.14-.61l.88-2.65h.79l-1.49,4h-.74Z" style="fill:#312e81"/><path id="Path_11" data-name="Path 11" d="M67.35,38.89H65.91l-.33,1h-.75l1.45-4h.79l1.44,4h-.74Zm-.7-2.33a4.84,4.84,0,0,1-.19.65l-.37,1.07h1.07l-.37-1.07c-.05-.28-.14-.65-.14-.65Z" style="fill:#312e81"/><path id="Path_12" data-name="Path 12" d="M69.57,36.46H68.22v-.65h3.4v.65H70.27v3.45h-.7Z" style="fill:#312e81"/><path id="Path_13" data-name="Path 13" d="M72.17,35.86h.74v4h-.74Z" style="fill:#312e81"/><path id="Path_14" data-name="Path 14" d="M73.42,35.86h.79l.93,2.65a4.15,4.15,0,0,1,.14.61s.09-.37.14-.61l.88-2.65h.79l-1.49,4h-.74Z" style="fill:#312e81"/><path id="Path_15" data-name="Path 15" d="M77.64,35.86h2.42v.65H78.38v1.07h1.35v.65H78.38v1.12h1.77v.56H77.64Z" style="fill:#312e81"/><path id="Path_16" data-name="Path 16" d="M82.32,35.86h.75V39.3h1.77v.61H82.32Z" style="fill:#312e81"/><path id="Path_17" data-name="Path 17" d="M85.39,35.86h2.42v.65H86.08v1.07h1.35v.65H86.08v1.12h1.77v.56H85.34v-4Z" style="fill:#312e81"/><path id="Path_18" data-name="Path 18" d="M90.73,38.89H89.28l-.32,1h-.75l1.45-4h.79l1.44,4h-.75ZM90,36.56c0,.22-.11.44-.18.65l-.38,1.07h1.07l-.37-1.07c0-.28-.14-.65-.14-.65Z" style="fill:#312e81"/><path id="Path_19" data-name="Path 19" d="M92.34,35.86h1.3a3,3,0,0,1,.84.09,1.12,1.12,0,0,1,.65,1.12,1.25,1.25,0,0,1-.7,1.12,1.24,1.24,0,0,1,.14.18l.84,1.54h-.84l-.79-1.54h-.7v1.54h-.74Zm1.4,1.91a.59.59,0,0,0,.65-.52.29.29,0,0,0,0-.13c0-.38-.18-.66-.74-.66h-.56v1.26h.65Z" style="fill:#312e81"/><path id="Path_20" data-name="Path 20" d="M96.1,35.86h.74l1.54,2.33c.14.23.33.65.33.65a4.74,4.74,0,0,1,0-.65V35.86h.74v4h-.74l-1.54-2.33c-.12-.21-.22-.43-.32-.65,0,.22,0,.43,0,.65v2.33H96.1Z" style="fill:#312e81"/><path id="Path_21" data-name="Path 21" d="M100.47,35.86h.74v4h-.74Z" style="fill:#312e81"/><path id="Path_22" data-name="Path 22" d="M102.22,35.86H103l1.53,2.33c.14.23.33.65.33.65,0-.22,0-.43,0-.65V35.86h.75v4h-.75l-1.53-2.33c-.12-.21-.23-.43-.33-.65,0,.22,0,.43,0,.65v2.33h-.75Z" style="fill:#312e81"/><path id="Path_23" data-name="Path 23" d="M108.4,35.77a2.3,2.3,0,0,1,1.53.51l-.37.56a1.66,1.66,0,0,0-1.07-.37,1.31,1.31,0,0,0-1.4,1.23v.17a1.34,1.34,0,0,0,1.25,1.43h.1a1.56,1.56,0,0,0,1-.42v-.47h-.6v-.65h1.3v2.14h-.7v-.37a1.75,1.75,0,0,1-1.16.41,2,2,0,0,1-2-2,.22.22,0,0,1,0-.08,2,2,0,0,1,2-2.09.33.33,0,0,1,.14,0Z" style="fill:#312e81"/><path id="Path_24" data-name="Path 24" d="M112.29,35.86h2.42v.65H113v1.07h1.35v.65H113v1.12h1.77v.56h-2.52v-4Z" style="fill:#312e81"/><path id="Path_25" data-name="Path 25" d="M116.42,37.86l-1.21-2h.84l.56,1c.14.23.28.51.28.51a2.94,2.94,0,0,1,.23-.51l.56-1h.84l-1.21,2,1.25,2h-.83l-.66-1.12a4,4,0,0,1-.23-.46,4,4,0,0,1-.23.46L116,39.91h-.84Z" style="fill:#312e81"/><path id="Path_26" data-name="Path 26" d="M119.2,35.86h1.58a1.24,1.24,0,0,1,1.3,1.19v.11a1.29,1.29,0,0,1-1.22,1.35H120v1.4h-.75Zm1.44,2a.65.65,0,0,0,.7-.62v-.08a.63.63,0,0,0-.54-.7H120v1.4Z" style="fill:#312e81"/><path id="Path_27" data-name="Path 27" d="M122.64,35.86h2.43v.65h-1.73v1.07h1.35v.65h-1.35v1.12h1.77v.56H122.6v-4Z" style="fill:#312e81"/><path id="Path_28" data-name="Path 28" d="M126,35.86h1.3a3,3,0,0,1,.84.09,1.13,1.13,0,0,1,.65,1.12,1.27,1.27,0,0,1-.7,1.12,1.24,1.24,0,0,1,.14.18l.84,1.54h-.84l-.79-1.54h-.7v1.54H126Zm1.4,1.91a.6.6,0,0,0,.65-.52v-.13c0-.38-.19-.66-.75-.66h-.55v1.26h.65Z" style="fill:#312e81"/><path id="Path_29" data-name="Path 29" d="M129.72,35.86h.74v4h-.74Z" style="fill:#312e81"/><path id="Path_30" data-name="Path 30" d="M131.49,35.86h2.42v.65h-1.72v1.07h1.35v.65h-1.35v1.12H134v.56h-2.52v-4Z" style="fill:#312e81"/><path id="Path_31" data-name="Path 31" d="M134.79,35.86h.75l1.53,2.33c.14.23.33.65.33.65,0-.22,0-.43-.05-.65V35.86h.75v4h-.75l-1.53-2.33c-.12-.21-.23-.43-.33-.65,0,.22,0,.43,0,.65v2.33h-.75Z" style="fill:#312e81"/><path id="Path_32" data-name="Path 32" d="M141,35.77a2.06,2.06,0,0,1,1.49.56l-.37.55a1.81,1.81,0,0,0-1.11-.41,1.3,1.3,0,0,0-1.36,1.25.76.76,0,0,0,0,.15,1.33,1.33,0,0,0,1.24,1.43H141a1.76,1.76,0,0,0,1.16-.51l.37.51a2.19,2.19,0,0,1-1.58.65,2,2,0,0,1-2.1-2v-.16a2.12,2.12,0,0,1,2.14-2Z" style="fill:#312e81"/><path id="Path_33" data-name="Path 33" d="M143.27,35.86h2.42v.65H144v1.07h1.35v.65H144v1.12h1.77v.56h-2.51v-4Z" style="fill:#312e81"/><path id="Path_34" data-name="Path 34" d="M146.66,38.89a1.62,1.62,0,0,0,1,.41c.32,0,.6-.14.6-.51,0-.74-1.91-.6-1.91-1.86a1.25,1.25,0,0,1,1.3-1.17h0a1.72,1.72,0,0,1,1.21.42l-.32.6a1.35,1.35,0,0,0-.89-.37c-.32,0-.6.18-.6.46,0,.75,1.91.56,1.91,1.87A1.25,1.25,0,0,1,147.77,40h-.08a2,2,0,0,1-1.4-.56Z" style="fill:#312e81"/></g></g></g></svg>