<svg xmlns="http://www.w3.org/2000/svg" xmlns:xlink="http://www.w3.org/1999/xlink" viewBox="0 0 932.05 160.88"><defs><mask id="mask" x="175.44" y="0" width="4.84" height="4.83" maskUnits="userSpaceOnUse"><g id="mask-2"><polygon id="path-1" points="175.44 0 180.28 0 180.28 4.83 175.44 4.83 175.44 0" style="fill:#fff;fill-rule:evenodd"/></g></mask></defs><g id="Layer_2" data-name="Layer 2"><g id="Layer_1-2" data-name="Layer 1"><path id="Fill-14" d="M144.71,44.39a3.13,3.13,0,1,0,3.13-3.12,3.12,3.12,0,0,0-3.13,3.12" style="fill:#312e81;fill-rule:evenodd"/><path id="Fill-16" d="M132.36,44.39a3.47,3.47,0,1,0,3.46-3.46,3.46,3.46,0,0,0-3.46,3.46" style="fill:#312e81;fill-rule:evenodd"/><path id="Fill-18" d="M181.57,44.39a2.3,2.3,0,1,0,2.3-2.3,2.3,2.3,0,0,0-2.3,2.3" style="fill:#312e81;fill-rule:evenodd"/><path id="Fill-20" d="M157,44.39a2.83,2.83,0,1,0,2.83-2.82A2.83,2.83,0,0,0,157,44.39" style="fill:#312e81;fill-rule:evenodd"/><path id="Fill-22" d="M169.31,44.39a2.55,2.55,0,1,0,2.55-2.54,2.54,2.54,0,0,0-2.55,2.54" style="fill:#312e81;fill-rule:evenodd"/><path id="Fill-24" d="M138.54,50.39a3.29,3.29,0,1,0,3.29-3.29,3.28,3.28,0,0,0-3.29,3.29" style="fill:#312e81;fill-rule:evenodd"/><path id="Fill-26" d="M126.17,50.39A3.64,3.64,0,0,0,129.82,54a3.47,3.47,0,0,0,.73-.08,3.64,3.64,0,0,0,0-7.13,3.47,3.47,0,0,0-.73-.08,3.64,3.64,0,0,0-3.65,3.65" style="fill:#312e81;fill-rule:evenodd"/><path id="Fill-28" d="M157,32.4a2.83,2.83,0,1,0,2.83-2.82A2.83,2.83,0,0,0,157,32.4" style="fill:#312e81;fill-rule:evenodd"/><path id="Fill-30" d="M169.31,32.4a2.55,2.55,0,1,0,2.55-2.55,2.55,2.55,0,0,0-2.55,2.55" style="fill:#312e81;fill-rule:evenodd"/><path id="Fill-32" d="M144.71,32.4a3.13,3.13,0,1,0,3.13-3.13,3.13,3.13,0,0,0-3.13,3.13" style="fill:#312e81;fill-rule:evenodd"/><path id="Fill-34" d="M181.57,32.4a2.3,2.3,0,1,0,2.3-2.3,2.29,2.29,0,0,0-2.3,2.3" style="fill:#312e81;fill-rule:evenodd"/><path id="Fill-36" d="M193.8,32.4a2.08,2.08,0,1,0,2.08-2.08,2.08,2.08,0,0,0-2.08,2.08" style="fill:#312e81;fill-rule:evenodd"/><path id="Fill-38" d="M187.86,37.54a2.22,2.22,0,0,0-.17.85,2.19,2.19,0,0,0,4.37,0,2.22,2.22,0,0,0-.17-.85,2.17,2.17,0,0,0-.47-.69,2.21,2.21,0,0,0-1.55-.64,2.2,2.2,0,0,0-2,1.33" style="fill:#312e81;fill-rule:evenodd"/><path id="Fill-40" d="M175.86,37a2.38,2.38,0,0,0-.23.41,2.47,2.47,0,0,0-.19.94,2.32,2.32,0,0,0,.42,1.35,2.39,2.39,0,0,0,2,1.07,2.63,2.63,0,0,0,.49-.05,2.39,2.39,0,0,0,1.22-.66,2.6,2.6,0,0,0,.3-.36,2.28,2.28,0,0,0,.36-.86,2,2,0,0,0,.05-.49,1.91,1.91,0,0,0-.05-.48,2.44,2.44,0,0,0-.14-.46,2.32,2.32,0,0,0-.22-.41,2.6,2.6,0,0,0-.3-.36,2.38,2.38,0,0,0-1.22-.65,2,2,0,0,0-.49-.05,2.44,2.44,0,0,0-1.71.7,2,2,0,0,0-.29.36" style="fill:#312e81;fill-rule:evenodd"/><path id="Fill-42" d="M163.38,37.35a2.76,2.76,0,0,0-.21,1,2.68,2.68,0,0,0,5.36,0,2.68,2.68,0,0,0-.78-1.89,2.68,2.68,0,0,0-1.9-.79,2.72,2.72,0,0,0-2.47,1.64" style="fill:#312e81;fill-rule:evenodd"/><path id="Fill-44" d="M151.38,36.73a3.15,3.15,0,0,0-.28.51,3,3,0,0,0,.28,2.81,3,3,0,0,0,2.46,1.31,2.91,2.91,0,0,0,.6-.06,3,3,0,0,0,1.5-.81,2.17,2.17,0,0,0,.36-.44,2.79,2.79,0,0,0,.45-1.06,3,3,0,0,0,0-1.19,3.31,3.31,0,0,0-.17-.56,3.15,3.15,0,0,0-.28-.51,2.42,2.42,0,0,0-.36-.43,2.84,2.84,0,0,0-1.5-.81,2.91,2.91,0,0,0-.6-.06,3,3,0,0,0-2.1.87,2.42,2.42,0,0,0-.36.43" style="fill:#312e81;fill-rule:evenodd"/><path id="Fill-46" d="M138.8,37.11a3.29,3.29,0,1,0,6.06,0,3.18,3.18,0,0,0-.7-1,3.31,3.31,0,0,0-4.66,0,3.18,3.18,0,0,0-.7,1" style="fill:#312e81;fill-rule:evenodd"/><path id="Fill-48" d="M151.38,60.72a2.79,2.79,0,0,0-.45,1.06,2.91,2.91,0,0,0-.06.6,3,3,0,0,0,.51,1.66,2.94,2.94,0,0,0,2.46,1.3,2.91,2.91,0,0,0,.6-.06,2.84,2.84,0,0,0,1.5-.81,2.42,2.42,0,0,0,.36-.43,2.93,2.93,0,0,0,.45-1.06,3.05,3.05,0,0,0,.06-.6,2.91,2.91,0,0,0-.06-.6,2.79,2.79,0,0,0-.45-1.06,2.17,2.17,0,0,0-.36-.44,3,3,0,0,0-1.5-.81,2.91,2.91,0,0,0-.6-.06,3,3,0,0,0-2.46,1.31" style="fill:#312e81;fill-rule:evenodd"/><path id="Fill-50" d="M138.6,61.72a3.52,3.52,0,0,0-.06.66,3.29,3.29,0,0,0,6.58,0,3.52,3.52,0,0,0-.06-.66,3.3,3.3,0,0,0-6.46,0" style="fill:#312e81;fill-rule:evenodd"/><path id="Fill-52" d="M163.22,61.84a3.1,3.1,0,0,0-.05.54,2.68,2.68,0,0,0,5.36,0,2.36,2.36,0,0,0-.05-.54,2.69,2.69,0,0,0-5.26,0" style="fill:#312e81;fill-rule:evenodd"/><path id="Fill-54" d="M126.24,61.64a4.53,4.53,0,0,0-.07.74A3.64,3.64,0,0,0,129.82,66a4.3,4.3,0,0,0,.73-.07,3.64,3.64,0,0,0,0-7.14,3.47,3.47,0,0,0-.73-.08,3.57,3.57,0,0,0-2,.63,3.66,3.66,0,0,0-1.54,2.28" style="fill:#312e81;fill-rule:evenodd"/><path id="Fill-56" d="M113.85,61.56a3.74,3.74,0,0,0-.08.82,4,4,0,0,0,8.08,0,4.47,4.47,0,0,0-.08-.82,4,4,0,0,0-7.92,0" style="fill:#312e81;fill-rule:evenodd"/><path id="Fill-58" d="M107.55,68.37a4.26,4.26,0,1,0,4.25-4.25,4.25,4.25,0,0,0-4.25,4.25" style="fill:#312e81;fill-rule:evenodd"/><path id="Fill-60" d="M144.71,68.37a3.13,3.13,0,1,0,3.13-3.12,3.13,3.13,0,0,0-3.13,3.12" style="fill:#312e81;fill-rule:evenodd"/><path id="Fill-62" d="M132.36,68.37a3.47,3.47,0,1,0,3.46-3.46,3.45,3.45,0,0,0-3.46,3.46" style="fill:#312e81;fill-rule:evenodd"/><path id="Fill-64" d="M120,68.37a3.84,3.84,0,1,0,3.84-3.83A3.84,3.84,0,0,0,120,68.37" style="fill:#312e81;fill-rule:evenodd"/><path id="Fill-66" d="M151.38,48.73a3,3,0,0,0,3.06,4.56,3,3,0,0,0,1.5-.81,2.17,2.17,0,0,0,.36-.44,2.79,2.79,0,0,0,.45-1.06,3,3,0,0,0,0-1.19,2.79,2.79,0,0,0-.45-1.06,2.17,2.17,0,0,0-.36-.44,3,3,0,0,0-2.1-.87,3,3,0,0,0-2.46,1.31" style="fill:#312e81;fill-rule:evenodd"/><path id="Fill-68" d="M175.86,49a2.35,2.35,0,0,0-.42,1.35,2.38,2.38,0,0,0,.42,1.36,2.41,2.41,0,0,0,2,1.06,2.63,2.63,0,0,0,.49,0,2.32,2.32,0,0,0,1.22-.66,3.27,3.27,0,0,0,.3-.35,2.4,2.4,0,0,0,.36-.87,2,2,0,0,0,.05-.49,2,2,0,0,0-.05-.48,2.4,2.4,0,0,0-.36-.87,3.27,3.27,0,0,0-.3-.35,2.32,2.32,0,0,0-1.22-.66,2,2,0,0,0-.49-.05,2.41,2.41,0,0,0-2,1.06" style="fill:#312e81;fill-rule:evenodd"/><path id="Fill-70" d="M163.17,50.38a2.68,2.68,0,1,0,2.68-2.67,2.68,2.68,0,0,0-2.68,2.67" style="fill:#312e81;fill-rule:evenodd"/><path id="Fill-72" d="M120,56.38a3.84,3.84,0,1,0,3.84-3.83A3.84,3.84,0,0,0,120,56.38" style="fill:#312e81;fill-rule:evenodd"/><path id="Fill-74" d="M132.36,56.38a3.47,3.47,0,1,0,3.46-3.46,3.46,3.46,0,0,0-3.46,3.46" style="fill:#312e81;fill-rule:evenodd"/><path id="Fill-76" d="M169.31,56.38a2.55,2.55,0,1,0,2.55-2.54,2.54,2.54,0,0,0-2.55,2.54" style="fill:#312e81;fill-rule:evenodd"/><path id="Fill-78" d="M144.71,56.38a3.13,3.13,0,1,0,3.13-3.12,3.12,3.12,0,0,0-3.13,3.12" style="fill:#312e81;fill-rule:evenodd"/><path id="Fill-80" d="M157,56.38a2.83,2.83,0,1,0,2.83-2.82A2.83,2.83,0,0,0,157,56.38" style="fill:#312e81;fill-rule:evenodd"/><path id="Fill-82" d="M169.31,8.41a2.55,2.55,0,1,0,2.55-2.54,2.55,2.55,0,0,0-2.55,2.54" style="fill:#312e81;fill-rule:evenodd"/><path id="Fill-84" d="M193.8,8.41a2.08,2.08,0,1,0,2.08-2.07,2.08,2.08,0,0,0-2.08,2.07" style="fill:#312e81;fill-rule:evenodd"/><path id="Fill-86" d="M181.57,8.41a2.3,2.3,0,1,0,2.3-2.29,2.3,2.3,0,0,0-2.3,2.29" style="fill:#312e81;fill-rule:evenodd"/><g id="Group-90"><g style="mask:url(#mask)"><path id="Fill-88" d="M175.86,1.07a2.32,2.32,0,0,0-.42,1.35,2.35,2.35,0,0,0,.42,1.35,2.41,2.41,0,0,0,2,1.06,2,2,0,0,0,.49,0,2.38,2.38,0,0,0,1.22-.65,2.6,2.6,0,0,0,.3-.36,2.4,2.4,0,0,0,.36-.87,1.91,1.91,0,0,0,.05-.48,2,2,0,0,0-.05-.49,2.35,2.35,0,0,0-.36-.86,2.6,2.6,0,0,0-.3-.36,2.39,2.39,0,0,0-1.22-.66,2.63,2.63,0,0,0-.49,0,2.39,2.39,0,0,0-2,1.07" style="fill:#312e81;fill-rule:evenodd"/></g></g><path id="Fill-91" d="M187.69,2.42A2.19,2.19,0,1,0,189.87.24a2.19,2.19,0,0,0-2.18,2.18" style="fill:#312e81;fill-rule:evenodd"/><path id="Fill-93" d="M163.17,26.4a2.68,2.68,0,1,0,2.68-2.68,2.68,2.68,0,0,0-2.68,2.68" style="fill:#312e81;fill-rule:evenodd"/><path id="Fill-95" d="M151.38,24.74a3,3,0,0,0-.51,1.66,3,3,0,0,0,3,3,2.91,2.91,0,0,0,.6-.06,3,3,0,0,0,1.5-.81,2.48,2.48,0,0,0,.36-.44,2.86,2.86,0,0,0,.45-1.06,2.91,2.91,0,0,0,.06-.6,3.05,3.05,0,0,0-.06-.6,2.93,2.93,0,0,0-.45-1.06,2.89,2.89,0,0,0-.36-.44,3,3,0,0,0-1.5-.81,2.91,2.91,0,0,0-.6-.06,3,3,0,0,0-2.46,1.31" style="fill:#312e81;fill-rule:evenodd"/><path id="Fill-97" d="M175.86,25.05a2.38,2.38,0,0,0,0,2.7,2.42,2.42,0,0,0,2,1.07,2.63,2.63,0,0,0,.49-.05,2.39,2.39,0,0,0,1.22-.66,2.6,2.6,0,0,0,.3-.36,2.42,2.42,0,0,0,.36-.86,2.43,2.43,0,0,0,0-1,2.42,2.42,0,0,0-.36-.86,2.6,2.6,0,0,0-.3-.36,2.39,2.39,0,0,0-1.22-.66,2.63,2.63,0,0,0-.49-.05,2.42,2.42,0,0,0-2,1.07" style="fill:#312e81;fill-rule:evenodd"/><path id="Fill-99" d="M199.91,26.4a2,2,0,0,0,.87,1.63,2,2,0,0,0,1.1.34,2.58,2.58,0,0,0,.4,0,2,2,0,0,0,0-3.86,2.58,2.58,0,0,0-.4,0,2,2,0,0,0-1.1.34,2,2,0,0,0-.87,1.63" style="fill:#312e81;fill-rule:evenodd"/><path id="Fill-101" d="M187.69,26.4a2.19,2.19,0,1,0,2.18-2.18,2.18,2.18,0,0,0-2.18,2.18" style="fill:#312e81;fill-rule:evenodd"/><path id="Fill-103" d="M200.49,13a2,2,0,0,0-.58,1.39,2,2,0,0,0,.87,1.63,2,2,0,0,0,1.1.34,2.58,2.58,0,0,0,.4,0,2,2,0,0,0,1.58-1.93,2,2,0,0,0-.58-1.39,2,2,0,0,0-1-.54,1.75,1.75,0,0,0-.4,0,1.93,1.93,0,0,0-1.1.34,2.17,2.17,0,0,0-.29.24" style="fill:#312e81;fill-rule:evenodd"/><path id="Fill-105" d="M163.38,13.37a2.76,2.76,0,0,0-.21,1,2.68,2.68,0,0,0,5.36,0,2.68,2.68,0,0,0-.78-1.89,2.68,2.68,0,0,0-1.9-.79,2.72,2.72,0,0,0-2.47,1.64" style="fill:#312e81;fill-rule:evenodd"/><path id="Fill-107" d="M187.86,13.56a2.19,2.19,0,1,0,4,0,2.06,2.06,0,0,0-.47-.69,2.17,2.17,0,0,0-1.55-.64,2.14,2.14,0,0,0-1.54.64,2.06,2.06,0,0,0-.47.69" style="fill:#312e81;fill-rule:evenodd"/><path id="Fill-109" d="M175.86,13.06a2.06,2.06,0,0,0-.23.41,2.47,2.47,0,0,0-.19.94,2.32,2.32,0,0,0,.42,1.35,2.42,2.42,0,0,0,2,1.07,2.63,2.63,0,0,0,.49,0,2.39,2.39,0,0,0,1.22-.66,2.6,2.6,0,0,0,.3-.36,2.42,2.42,0,0,0,.36-.86,2.43,2.43,0,0,0,0-1,2.35,2.35,0,0,0-.14-.45,2,2,0,0,0-.22-.41,2.6,2.6,0,0,0-.3-.36,2.39,2.39,0,0,0-1.22-.66,2.63,2.63,0,0,0-.49,0,2.4,2.4,0,0,0-1.71.71,2,2,0,0,0-.29.36" style="fill:#312e81;fill-rule:evenodd"/><path id="Fill-111" d="M181.57,20.41a2.3,2.3,0,1,0,2.3-2.3,2.3,2.3,0,0,0-2.3,2.3" style="fill:#312e81;fill-rule:evenodd"/><path id="Fill-113" d="M169.31,20.41a2.55,2.55,0,1,0,2.55-2.55,2.55,2.55,0,0,0-2.55,2.55" style="fill:#312e81;fill-rule:evenodd"/><path id="Fill-115" d="M193.8,20.41a2.08,2.08,0,1,0,2.08-2.08,2.08,2.08,0,0,0-2.08,2.08" style="fill:#312e81;fill-rule:evenodd"/><path id="Fill-117" d="M157,68.37a2.83,2.83,0,1,0,2.83-2.82A2.83,2.83,0,0,0,157,68.37" style="fill:#312e81;fill-rule:evenodd"/><path id="Fill-119" d="M157,20.41a2.83,2.83,0,1,0,2.83-2.82A2.82,2.82,0,0,0,157,20.41" style="fill:#312e81;fill-rule:evenodd"/><path id="Fill-121" d="M132.36,80.36a3.47,3.47,0,1,0,3.46-3.46,3.46,3.46,0,0,0-3.46,3.46" style="fill:#312e81;fill-rule:evenodd"/><path id="Fill-123" d="M144.71,80.36a3.13,3.13,0,1,0,3.13-3.12,3.13,3.13,0,0,0-3.13,3.12" style="fill:#312e81;fill-rule:evenodd"/><path id="Fill-125" d="M120,80.36a3.84,3.84,0,1,0,3.84-3.83A3.84,3.84,0,0,0,120,80.36" style="fill:#312e81;fill-rule:evenodd"/><path id="Fill-127" d="M107.55,80.37a4.26,4.26,0,1,0,4.25-4.26,4.24,4.24,0,0,0-4.25,4.26" style="fill:#312e81;fill-rule:evenodd"/><path id="Fill-129" d="M126.17,74.37A3.64,3.64,0,0,0,129.82,78a3.48,3.48,0,0,0,.73-.07,3.64,3.64,0,0,0,0-7.14,3.48,3.48,0,0,0-.73-.07,3.64,3.64,0,0,0-3.65,3.64" style="fill:#312e81;fill-rule:evenodd"/><path id="Fill-131" d="M151.38,72.71a3,3,0,0,0,2.46,4.62,3,3,0,0,0,2.1-.86,2.48,2.48,0,0,0,.36-.44,2.93,2.93,0,0,0,.45-1.06,3.05,3.05,0,0,0,.06-.6,2.91,2.91,0,0,0-.06-.6,2.86,2.86,0,0,0-.45-1.06,2.48,2.48,0,0,0-.36-.44,3,3,0,0,0-1.5-.81,2.91,2.91,0,0,0-.6-.06,3,3,0,0,0-2.46,1.31" style="fill:#312e81;fill-rule:evenodd"/><path id="Fill-133" d="M102.82,74.37a3,3,0,1,0,3-3,3,3,0,0,0-3,3" style="fill:#312e81;fill-rule:evenodd"/><path id="Fill-135" d="M113.77,74.37a4,4,0,1,0,4-4,4,4,0,0,0-4,4" style="fill:#312e81;fill-rule:evenodd"/><path id="Fill-137" d="M138.54,74.37a3.29,3.29,0,1,0,3.29-3.29,3.29,3.29,0,0,0-3.29,3.29" style="fill:#312e81;fill-rule:evenodd"/><path id="Fill-139" d="M144.71,128.48a3.13,3.13,0,1,0,3.13-3.12,3.13,3.13,0,0,0-3.13,3.12" style="fill:#312e81;fill-rule:evenodd"/><path id="Fill-141" d="M181.57,128.48a2.3,2.3,0,1,0,2.3-2.29,2.3,2.3,0,0,0-2.3,2.29" style="fill:#312e81;fill-rule:evenodd"/><path id="Fill-143" d="M157,128.48a2.83,2.83,0,1,0,2.83-2.82,2.83,2.83,0,0,0-2.83,2.82" style="fill:#312e81;fill-rule:evenodd"/><path id="Fill-145" d="M193.8,128.48a2.08,2.08,0,1,0,2.08-2.07,2.08,2.08,0,0,0-2.08,2.07" style="fill:#312e81;fill-rule:evenodd"/><path id="Fill-147" d="M169.31,128.48a2.55,2.55,0,1,0,2.55-2.54,2.55,2.55,0,0,0-2.55,2.54" style="fill:#312e81;fill-rule:evenodd"/><path id="Fill-149" d="M157,116.49a2.83,2.83,0,1,0,2.83-2.82,2.83,2.83,0,0,0-2.83,2.82" style="fill:#312e81;fill-rule:evenodd"/><path id="Fill-151" d="M169.31,116.49a2.55,2.55,0,1,0,2.55-2.54,2.54,2.54,0,0,0-2.55,2.54" style="fill:#312e81;fill-rule:evenodd"/><path id="Fill-153" d="M132.36,116.49a3.47,3.47,0,1,0,3.46-3.46,3.46,3.46,0,0,0-3.46,3.46" style="fill:#312e81;fill-rule:evenodd"/><path id="Fill-155" d="M144.71,116.49a3.13,3.13,0,1,0,3.13-3.12,3.12,3.12,0,0,0-3.13,3.12" style="fill:#312e81;fill-rule:evenodd"/><path id="Fill-157" d="M181.57,116.49a2.3,2.3,0,1,0,2.3-2.3,2.3,2.3,0,0,0-2.3,2.3" style="fill:#312e81;fill-rule:evenodd"/><path id="Fill-159" d="M187.86,121.64a2.19,2.19,0,1,0,4,0,2.16,2.16,0,0,0-2-1.33,2.18,2.18,0,0,0-1.54.63,2.21,2.21,0,0,0-.47.7" style="fill:#312e81;fill-rule:evenodd"/><path id="Fill-161" d="M175.86,121.14a1.81,1.81,0,0,0-.23.41,2.43,2.43,0,0,0-.19.94,2.35,2.35,0,0,0,.42,1.35,2.41,2.41,0,0,0,2,1.06,2,2,0,0,0,.49-.05,2.38,2.38,0,0,0,1.22-.65,2.6,2.6,0,0,0,.3-.36,2.4,2.4,0,0,0,.36-.87,1.91,1.91,0,0,0,.05-.48,2,2,0,0,0-.05-.49,2.15,2.15,0,0,0-.14-.45,1.78,1.78,0,0,0-.22-.41,2.6,2.6,0,0,0-.3-.36,2.39,2.39,0,0,0-1.22-.66,2.63,2.63,0,0,0-.49-.05,2.4,2.4,0,0,0-1.71.71,2,2,0,0,0-.29.36" style="fill:#312e81;fill-rule:evenodd"/><path id="Fill-163" d="M163.38,121.45a2.76,2.76,0,0,0-.21,1,2.68,2.68,0,0,0,5.36,0,2.58,2.58,0,0,0-.21-1,2.64,2.64,0,0,0-.57-.86,2.71,2.71,0,0,0-1.9-.78,2.68,2.68,0,0,0-2.47,1.64" style="fill:#312e81;fill-rule:evenodd"/><path id="Fill-165" d="M151.38,120.83a3.53,3.53,0,0,0-.28.5,3,3,0,0,0,.28,2.82,2.94,2.94,0,0,0,2.46,1.3,3,3,0,0,0,2.91-2.36,3.05,3.05,0,0,0,.06-.6,2.91,2.91,0,0,0-.06-.6,3.62,3.62,0,0,0-.17-.56,3.53,3.53,0,0,0-.28-.5,2.17,2.17,0,0,0-.36-.44,3,3,0,0,0-1.5-.81,2.91,2.91,0,0,0-.6-.06,3,3,0,0,0-2.1.87,2.17,2.17,0,0,0-.36.44" style="fill:#312e81;fill-rule:evenodd"/><path id="Fill-167" d="M138.8,121.21a3.18,3.18,0,0,0-.26,1.28,3.29,3.29,0,0,0,6.58,0,3.18,3.18,0,0,0-.26-1.28,3.12,3.12,0,0,0-.7-1,3.31,3.31,0,0,0-4.66,0,3.12,3.12,0,0,0-.7,1" style="fill:#312e81;fill-rule:evenodd"/><path id="Fill-169" d="M163.22,145.93a3.29,3.29,0,0,0-.05.54,2.68,2.68,0,0,0,5.36,0,2.47,2.47,0,0,0-.05-.54,2.69,2.69,0,0,0-5.26,0" style="fill:#312e81;fill-rule:evenodd"/><path id="Fill-171" d="M175.86,145.12a2.44,2.44,0,0,0-.37.86,2.63,2.63,0,0,0-.05.49,2.32,2.32,0,0,0,.42,1.35,2.39,2.39,0,0,0,2,1.07,2.63,2.63,0,0,0,.49,0,2.39,2.39,0,0,0,1.22-.66,2.6,2.6,0,0,0,.3-.36,2.42,2.42,0,0,0,.36-.86,2.43,2.43,0,0,0,0-1,2.42,2.42,0,0,0-.36-.86,2.6,2.6,0,0,0-.3-.36,2.39,2.39,0,0,0-1.22-.66,2.63,2.63,0,0,0-.49,0,2.42,2.42,0,0,0-2,1.07" style="fill:#312e81;fill-rule:evenodd"/><path id="Fill-173" d="M200,146.07a2.58,2.58,0,0,0,0,.4,2,2,0,0,0,.87,1.63,2,2,0,0,0,1.1.34,2.58,2.58,0,0,0,.4,0,2,2,0,0,0,1.58-1.93,2.58,2.58,0,0,0,0-.4,2,2,0,0,0-1.54-1.53,2.58,2.58,0,0,0-.4,0,2,2,0,0,0-1.1.34,2,2,0,0,0-.83,1.23" style="fill:#312e81;fill-rule:evenodd"/><path id="Fill-175" d="M187.73,146a3.13,3.13,0,0,0,0,.44,2.19,2.19,0,0,0,4.37,0A2.12,2.12,0,0,0,192,146a2.19,2.19,0,0,0-4.28,0" style="fill:#312e81;fill-rule:evenodd"/><path id="Fill-177" d="M151.38,132.82a3,3,0,0,0,2.46,4.62,3,3,0,0,0,2.91-2.36,3.05,3.05,0,0,0,.06-.6,2.91,2.91,0,0,0-.06-.6,2.86,2.86,0,0,0-.45-1.06,2.48,2.48,0,0,0-.36-.44,3,3,0,0,0-1.5-.81,2.91,2.91,0,0,0-.6-.06,3,3,0,0,0-2.46,1.31" style="fill:#312e81;fill-rule:evenodd"/><path id="Fill-179" d="M199.91,134.48a2,2,0,0,0,.87,1.63,2,2,0,0,0,1.1.34,2.58,2.58,0,0,0,.4,0,2,2,0,0,0,0-3.86,1.75,1.75,0,0,0-.4,0,1.93,1.93,0,0,0-1.1.34,2,2,0,0,0-.87,1.63" style="fill:#312e81;fill-rule:evenodd"/><path id="Fill-181" d="M175.86,133.13a2.38,2.38,0,0,0,0,2.7,2.41,2.41,0,0,0,2,1.06,2.63,2.63,0,0,0,.49,0,2.47,2.47,0,0,0,1.22-.66,2.6,2.6,0,0,0,.3-.36,2.42,2.42,0,0,0,.36-.86,2.43,2.43,0,0,0,0-1,2.42,2.42,0,0,0-.36-.86,2.6,2.6,0,0,0-.3-.36,2.39,2.39,0,0,0-1.22-.66,2.63,2.63,0,0,0-.49-.05,2.39,2.39,0,0,0-2,1.07" style="fill:#312e81;fill-rule:evenodd"/><path id="Fill-183" d="M187.69,134.48a2.19,2.19,0,1,0,2.18-2.18,2.19,2.19,0,0,0-2.18,2.18" style="fill:#312e81;fill-rule:evenodd"/><path id="Fill-185" d="M163.17,134.48a2.68,2.68,0,1,0,2.68-2.68,2.68,2.68,0,0,0-2.68,2.68" style="fill:#312e81;fill-rule:evenodd"/><path id="Fill-187" d="M193.8,140.47a2.08,2.08,0,1,0,2.08-2.07,2.08,2.08,0,0,0-2.08,2.07" style="fill:#312e81;fill-rule:evenodd"/><path id="Fill-189" d="M181.57,140.47a2.3,2.3,0,1,0,2.3-2.29,2.3,2.3,0,0,0-2.3,2.29" style="fill:#312e81;fill-rule:evenodd"/><path id="Fill-191" d="M169.31,140.47a2.55,2.55,0,1,0,2.55-2.54,2.55,2.55,0,0,0-2.55,2.54" style="fill:#312e81;fill-rule:evenodd"/><path id="Fill-193" d="M157,140.47a2.83,2.83,0,1,0,2.83-2.82,2.83,2.83,0,0,0-2.83,2.82" style="fill:#312e81;fill-rule:evenodd"/><path id="Fill-195" d="M144.71,92.51a3.13,3.13,0,1,0,3.13-3.13,3.13,3.13,0,0,0-3.13,3.13" style="fill:#312e81;fill-rule:evenodd"/><path id="Fill-197" d="M132.36,92.51A3.47,3.47,0,1,0,135.82,89a3.46,3.46,0,0,0-3.46,3.47" style="fill:#312e81;fill-rule:evenodd"/><path id="Fill-199" d="M120,92.51a3.84,3.84,0,1,0,3.84-3.84A3.83,3.83,0,0,0,120,92.51" style="fill:#312e81;fill-rule:evenodd"/><path id="Fill-201" d="M107.55,92.51a4.26,4.26,0,1,0,4.25-4.25,4.25,4.25,0,0,0-4.25,4.25" style="fill:#312e81;fill-rule:evenodd"/><path id="Fill-203" d="M157,92.51a2.83,2.83,0,1,0,2.83-2.82A2.83,2.83,0,0,0,157,92.51" style="fill:#312e81;fill-rule:evenodd"/><path id="Fill-205" d="M120,80.51a3.84,3.84,0,1,0,3.84-3.83A3.84,3.84,0,0,0,120,80.51" style="fill:#312e81;fill-rule:evenodd"/><path id="Fill-207" d="M132.36,80.51a3.47,3.47,0,1,0,3.46-3.46,3.46,3.46,0,0,0-3.46,3.46" style="fill:#312e81;fill-rule:evenodd"/><path id="Fill-209" d="M107.55,80.51a4.26,4.26,0,1,0,4.25-4.24,4.25,4.25,0,0,0-4.25,4.24" style="fill:#312e81;fill-rule:evenodd"/><path id="Fill-211" d="M144.71,80.51a3.13,3.13,0,1,0,3.13-3.12,3.13,3.13,0,0,0-3.13,3.12" style="fill:#312e81;fill-rule:evenodd"/><path id="Fill-213" d="M151.38,84.85a3,3,0,0,0-.51,1.66,3,3,0,0,0,3,3,2.91,2.91,0,0,0,.6-.06,3,3,0,0,0,1.5-.81,2.48,2.48,0,0,0,.36-.44,2.86,2.86,0,0,0,.45-1.06,2.91,2.91,0,0,0,.06-.6,3.05,3.05,0,0,0-.06-.6,2.93,2.93,0,0,0-.45-1.06,2.48,2.48,0,0,0-.36-.44,3,3,0,0,0-1.5-.81,2.91,2.91,0,0,0-.6-.06,3,3,0,0,0-2.46,1.31" style="fill:#312e81;fill-rule:evenodd"/><path id="Fill-215" d="M126.17,86.51a3.64,3.64,0,0,0,3.65,3.64,3.48,3.48,0,0,0,.73-.07,3.64,3.64,0,0,0,0-7.14,3.48,3.48,0,0,0-.73-.07,3.64,3.64,0,0,0-3.65,3.64" style="fill:#312e81;fill-rule:evenodd"/><path id="Fill-217" d="M138.54,86.51a3.29,3.29,0,1,0,3.29-3.29,3.29,3.29,0,0,0-3.29,3.29" style="fill:#312e81;fill-rule:evenodd"/><path id="Fill-219" d="M102.82,86.51a3,3,0,1,0,3-3,3,3,0,0,0-3,3" style="fill:#312e81;fill-rule:evenodd"/><path id="Fill-221" d="M113.77,86.51a4,4,0,1,0,4-4,4,4,0,0,0-4,4" style="fill:#312e81;fill-rule:evenodd"/><path id="Fill-223" d="M163.17,110.5a2.68,2.68,0,1,0,2.68-2.68,2.68,2.68,0,0,0-2.68,2.68" style="fill:#312e81;fill-rule:evenodd"/><path id="Fill-225" d="M151.38,108.84a3,3,0,0,0,2.46,4.62,2.91,2.91,0,0,0,.6-.06,3,3,0,0,0,1.5-.81,2.17,2.17,0,0,0,.36-.44,2.79,2.79,0,0,0,.45-1.06,3,3,0,0,0,0-1.19,2.79,2.79,0,0,0-.45-1.06,2.17,2.17,0,0,0-.36-.44,3,3,0,0,0-2.1-.87,3,3,0,0,0-2.46,1.31" style="fill:#312e81;fill-rule:evenodd"/><path id="Fill-227" d="M126.17,110.5a3.64,3.64,0,0,0,3.65,3.64,3.47,3.47,0,0,0,.73-.08,3.64,3.64,0,0,0,0-7.13,3.47,3.47,0,0,0-.73-.08,3.64,3.64,0,0,0-3.65,3.65" style="fill:#312e81;fill-rule:evenodd"/><path id="Fill-229" d="M175.86,109.14a2.4,2.4,0,0,0,0,2.71,2.41,2.41,0,0,0,2,1.06,2.63,2.63,0,0,0,.49,0,2.39,2.39,0,0,0,1.22-.66,3.27,3.27,0,0,0,.3-.35,2.4,2.4,0,0,0,.36-.87,2,2,0,0,0,.05-.49,2,2,0,0,0-.05-.48,2.4,2.4,0,0,0-.36-.87,3.27,3.27,0,0,0-.3-.35,2.32,2.32,0,0,0-1.22-.66,2,2,0,0,0-.49,0,2.41,2.41,0,0,0-2,1.06" style="fill:#312e81;fill-rule:evenodd"/><path id="Fill-231" d="M138.54,110.5a3.29,3.29,0,1,0,3.29-3.29,3.28,3.28,0,0,0-3.29,3.29" style="fill:#312e81;fill-rule:evenodd"/><path id="Fill-233" d="M138.8,97.22a3.29,3.29,0,1,0,6.06,0,3.18,3.18,0,0,0-.7-1,3.31,3.31,0,0,0-4.66,0,3.18,3.18,0,0,0-.7,1" style="fill:#312e81;fill-rule:evenodd"/><path id="Fill-235" d="M151.38,96.84a3.15,3.15,0,0,0-.28.51,3,3,0,0,0,.28,2.81,3,3,0,0,0,2.46,1.31,2.91,2.91,0,0,0,.6-.06,3,3,0,0,0,1.5-.81,2.17,2.17,0,0,0,.36-.44,2.79,2.79,0,0,0,.45-1.06,3,3,0,0,0,0-1.19,3.31,3.31,0,0,0-.17-.56,3.15,3.15,0,0,0-.28-.51,2.42,2.42,0,0,0-.36-.43,2.84,2.84,0,0,0-1.5-.81,2.91,2.91,0,0,0-.6-.06,3,3,0,0,0-2.1.87,2.42,2.42,0,0,0-.36.43" style="fill:#312e81;fill-rule:evenodd"/><path id="Fill-237" d="M127.24,95.93a3.54,3.54,0,0,0-.78,1.16,3.49,3.49,0,0,0-.29,1.41,3.63,3.63,0,0,0,1.61,3,3.57,3.57,0,0,0,2,.63,3.47,3.47,0,0,0,.73-.08,3.65,3.65,0,0,0,2.92-3.57,3.49,3.49,0,0,0-.29-1.41,3.54,3.54,0,0,0-.78-1.16,3.65,3.65,0,0,0-1.85-1,4.3,4.3,0,0,0-.73-.07,3.64,3.64,0,0,0-2,.62,2.93,2.93,0,0,0-.54.45" style="fill:#312e81;fill-rule:evenodd"/><path id="Fill-239" d="M114.08,96.93a4.15,4.15,0,0,0-.31,1.57,4,4,0,0,0,8.08,0,4,4,0,0,0-.32-1.57,4.12,4.12,0,0,0-.86-1.28,4.06,4.06,0,0,0-5.72,0,4.15,4.15,0,0,0-.87,1.28" style="fill:#312e81;fill-rule:evenodd"/><path id="Fill-241" d="M163.38,97.46a2.76,2.76,0,0,0-.21,1,2.68,2.68,0,1,0,5.36,0,2.68,2.68,0,0,0-.78-1.89,2.68,2.68,0,0,0-1.9-.79,2.72,2.72,0,0,0-2.47,1.64" style="fill:#312e81;fill-rule:evenodd"/><path id="Fill-243" d="M169.31,104.5a2.55,2.55,0,1,0,2.55-2.54,2.54,2.54,0,0,0-2.55,2.54" style="fill:#312e81;fill-rule:evenodd"/><path id="Fill-245" d="M144.71,104.5a3.13,3.13,0,1,0,3.13-3.12,3.12,3.12,0,0,0-3.13,3.12" style="fill:#312e81;fill-rule:evenodd"/><path id="Fill-247" d="M157,104.5a2.83,2.83,0,1,0,2.83-2.82A2.83,2.83,0,0,0,157,104.5" style="fill:#312e81;fill-rule:evenodd"/><path id="Fill-249" d="M120,104.5a3.84,3.84,0,1,0,3.84-3.83A3.83,3.83,0,0,0,120,104.5" style="fill:#312e81;fill-rule:evenodd"/><path id="Fill-251" d="M132.36,104.5a3.47,3.47,0,1,0,3.46-3.46,3.46,3.46,0,0,0-3.46,3.46" style="fill:#312e81;fill-rule:evenodd"/><path id="Fill-253" d="M169.31,152.47a2.55,2.55,0,1,0,2.55-2.55,2.55,2.55,0,0,0-2.55,2.55" style="fill:#312e81;fill-rule:evenodd"/><path id="Fill-255" d="M193.8,152.47a2.08,2.08,0,1,0,2.08-2.07,2.08,2.08,0,0,0-2.08,2.07" style="fill:#312e81;fill-rule:evenodd"/><path id="Fill-257" d="M181.57,152.47a2.3,2.3,0,1,0,2.3-2.3,2.29,2.29,0,0,0-2.3,2.3" style="fill:#312e81;fill-rule:evenodd"/><path id="Fill-259" d="M187.69,158.46a2.19,2.19,0,1,0,2.18-2.18,2.18,2.18,0,0,0-2.18,2.18" style="fill:#312e81;fill-rule:evenodd"/><path id="Fill-261" d="M175.86,157.11a2.38,2.38,0,0,0,0,2.7,2.39,2.39,0,0,0,2,1.07,2.63,2.63,0,0,0,.49,0,2.39,2.39,0,0,0,1.22-.66,2.6,2.6,0,0,0,.3-.36,2.35,2.35,0,0,0,.36-.86,2,2,0,0,0,.05-.49,1.91,1.91,0,0,0-.05-.48,2.4,2.4,0,0,0-.36-.87,2.6,2.6,0,0,0-.3-.36,2.47,2.47,0,0,0-1.22-.66,2.63,2.63,0,0,0-.49,0,2.41,2.41,0,0,0-2,1.06" style="fill:#312e81;fill-rule:evenodd"/><path id="Fill-263" d="M59.15,116.49A3.13,3.13,0,1,0,56,119.61a3.12,3.12,0,0,0,3.13-3.12" style="fill:#312e81;fill-rule:evenodd"/><path id="Fill-265" d="M71.5,116.49A3.47,3.47,0,1,0,68,120a3.47,3.47,0,0,0,3.47-3.46" style="fill:#312e81;fill-rule:evenodd"/><path id="Fill-267" d="M22.29,116.49a2.3,2.3,0,1,0-2.3,2.29,2.3,2.3,0,0,0,2.3-2.29" style="fill:#312e81;fill-rule:evenodd"/><path id="Fill-269" d="M46.83,116.49A2.82,2.82,0,1,0,44,119.31a2.82,2.82,0,0,0,2.82-2.82" style="fill:#312e81;fill-rule:evenodd"/><path id="Fill-271" d="M34.55,116.49A2.55,2.55,0,1,0,32,119a2.55,2.55,0,0,0,2.55-2.54" style="fill:#312e81;fill-rule:evenodd"/><path id="Fill-273" d="M65.32,110.49A3.3,3.3,0,1,0,62,113.78a3.28,3.28,0,0,0,3.29-3.29" style="fill:#312e81;fill-rule:evenodd"/><path id="Fill-275" d="M77.69,110.49A3.63,3.63,0,1,0,74,114.14a3.66,3.66,0,0,0,3.65-3.65" style="fill:#312e81;fill-rule:evenodd"/><path id="Fill-277" d="M46.83,128.48A2.82,2.82,0,1,0,44,131.3a2.82,2.82,0,0,0,2.82-2.82" style="fill:#312e81;fill-rule:evenodd"/><path id="Fill-279" d="M34.55,128.48A2.55,2.55,0,1,0,32,131a2.55,2.55,0,0,0,2.55-2.55" style="fill:#312e81;fill-rule:evenodd"/><path id="Fill-281" d="M59.15,128.48A3.13,3.13,0,1,0,56,131.61a3.13,3.13,0,0,0,3.13-3.13" style="fill:#312e81;fill-rule:evenodd"/><path id="Fill-283" d="M22.29,128.48a2.3,2.3,0,1,0-2.3,2.3,2.29,2.29,0,0,0,2.3-2.3" style="fill:#312e81;fill-rule:evenodd"/><path id="Fill-285" d="M10.05,128.48A2.08,2.08,0,1,0,8,130.55a2.07,2.07,0,0,0,2.07-2.07" style="fill:#312e81;fill-rule:evenodd"/><path id="Fill-287" d="M16,123.33a2.14,2.14,0,0,0,.17-.84,2.19,2.19,0,1,0-4.37,0,2.14,2.14,0,0,0,.17.84,2.21,2.21,0,0,0,.47.7,2.19,2.19,0,0,0,1.54.64,2.19,2.19,0,0,0,2-1.34" style="fill:#312e81;fill-rule:evenodd"/><path id="Fill-289" d="M28,123.84a2.44,2.44,0,0,0,.41-1.36A2.4,2.4,0,0,0,26,120.07a2.52,2.52,0,0,0-.48.05,2.42,2.42,0,0,0-1.23.66,2.34,2.34,0,0,0-.29.35,2.41,2.41,0,0,0-.37.87,2.52,2.52,0,0,0-.05.48,2.63,2.63,0,0,0,.05.49,2.44,2.44,0,0,0,.14.46,3.3,3.3,0,0,0,.23.41,2.42,2.42,0,0,0,1.52,1,1.91,1.91,0,0,0,.48.05,2.43,2.43,0,0,0,1.72-.71,3.17,3.17,0,0,0,.29-.35" style="fill:#312e81;fill-rule:evenodd"/><path id="Fill-291" d="M40.48,123.53a2.81,2.81,0,0,0,.21-1,2.69,2.69,0,0,0-5.37,0,2.81,2.81,0,0,0,.21,1,2.62,2.62,0,0,0,.58.85,2.69,2.69,0,0,0,3.79,0,2.79,2.79,0,0,0,.58-.85" style="fill:#312e81;fill-rule:evenodd"/><path id="Fill-293" d="M52.48,124.14a2.19,2.19,0,0,0,.27-.5,3,3,0,0,0,.24-1.16,2.93,2.93,0,0,0-.51-1.65A3,3,0,0,0,50,119.52a2.91,2.91,0,0,0-.6.06,3.05,3.05,0,0,0-1.51.81,3.13,3.13,0,0,0-.36.44,3,3,0,0,0-.45,1.06,3,3,0,0,0,0,1.19,2.62,2.62,0,0,0,.18.56,2.65,2.65,0,0,0,.27.5,3.13,3.13,0,0,0,.36.44,3,3,0,0,0,1.51.81,2.91,2.91,0,0,0,.6.06,3,3,0,0,0,2.1-.87,3.13,3.13,0,0,0,.36-.44" style="fill:#312e81;fill-rule:evenodd"/><path id="Fill-295" d="M65.06,123.76a3.18,3.18,0,0,0,.26-1.28,3.3,3.3,0,0,0-6.59,0,3.36,3.36,0,0,0,.26,1.28,3.3,3.3,0,0,0,6.07,0" style="fill:#312e81;fill-rule:evenodd"/><path id="Fill-297" d="M52.48,100.16a3,3,0,0,0,.45-1.06,2.91,2.91,0,0,0,.06-.6,3,3,0,0,0-3-3,3.81,3.81,0,0,0-.6.06,3.05,3.05,0,0,0-1.51.81,4.94,4.94,0,0,0-.36.44,3.12,3.12,0,0,0-.45,1.06,3.05,3.05,0,0,0-.06.6,2.91,2.91,0,0,0,.06.6,3,3,0,0,0,.45,1.06,3.83,3.83,0,0,0,.36.44,3.05,3.05,0,0,0,1.51.81,2.91,2.91,0,0,0,.6.06,3,3,0,0,0,2.46-1.31" style="fill:#312e81;fill-rule:evenodd"/><path id="Fill-299" d="M65.25,99.16a2.84,2.84,0,0,0,.07-.66,3.3,3.3,0,0,0-6.59,0,3.51,3.51,0,0,0,.07.66,3.29,3.29,0,0,0,6.45,0" style="fill:#312e81;fill-rule:evenodd"/><path id="Fill-301" d="M40.63,99a2.35,2.35,0,0,0,.06-.54,2.69,2.69,0,0,0-5.37,0,2.35,2.35,0,0,0,.06.54,2.68,2.68,0,0,0,5.25,0" style="fill:#312e81;fill-rule:evenodd"/><path id="Fill-303" d="M77.61,99.23a3.47,3.47,0,0,0,.08-.73,3.65,3.65,0,0,0-7.3,0,3.48,3.48,0,0,0,.07.73A3.62,3.62,0,0,0,74,102.14a3.59,3.59,0,0,0,2-.62,3.64,3.64,0,0,0,1.53-2.29" style="fill:#312e81;fill-rule:evenodd"/><path id="Fill-305" d="M90,99.31a4.28,4.28,0,0,0,.08-.81,4,4,0,0,0-8.09,0,3.59,3.59,0,0,0,.09.81,4,4,0,0,0,7.92,0" style="fill:#312e81;fill-rule:evenodd"/><path id="Fill-307" d="M96.31,92.51a4.26,4.26,0,1,0-4.26,4.24,4.25,4.25,0,0,0,4.26-4.24" style="fill:#312e81;fill-rule:evenodd"/><path id="Fill-309" d="M59.15,92.51A3.13,3.13,0,1,0,56,95.63a3.13,3.13,0,0,0,3.13-3.12" style="fill:#312e81;fill-rule:evenodd"/><path id="Fill-311" d="M71.5,92.51A3.47,3.47,0,1,0,68,96a3.47,3.47,0,0,0,3.47-3.46" style="fill:#312e81;fill-rule:evenodd"/><path id="Fill-313" d="M83.88,92.51A3.84,3.84,0,1,0,80,96.34a3.84,3.84,0,0,0,3.84-3.83" style="fill:#312e81;fill-rule:evenodd"/><path id="Fill-315" d="M52.48,112.15A3,3,0,0,0,50,107.53a2.91,2.91,0,0,0-.6.06,3,3,0,0,0-1.51.81,3.13,3.13,0,0,0-.36.44,3,3,0,0,0-.45,1.06,3,3,0,0,0,0,1.19,3,3,0,0,0,.45,1.06,3.13,3.13,0,0,0,.36.44,3.05,3.05,0,0,0,1.51.81,2.91,2.91,0,0,0,.6.06,3,3,0,0,0,2.46-1.31" style="fill:#312e81;fill-rule:evenodd"/><path id="Fill-317" d="M28,111.84a2.39,2.39,0,0,0,.41-1.35A2.4,2.4,0,0,0,26,108.08a1.91,1.91,0,0,0-.48,0,2.35,2.35,0,0,0-1.23.66,1.64,1.64,0,0,0-.29.35,2.41,2.41,0,0,0-.37.87,2.52,2.52,0,0,0-.05.48,2.63,2.63,0,0,0,.05.49,2.29,2.29,0,0,0,.37.86,2,2,0,0,0,.29.36,2.35,2.35,0,0,0,1.23.66,2.52,2.52,0,0,0,.48,0,2.4,2.4,0,0,0,2-1.07" style="fill:#312e81;fill-rule:evenodd"/><path id="Fill-319" d="M40.69,110.49A2.69,2.69,0,1,0,38,113.17a2.68,2.68,0,0,0,2.69-2.68" style="fill:#312e81;fill-rule:evenodd"/><path id="Fill-321" d="M83.88,104.5A3.84,3.84,0,1,0,80,108.33a3.84,3.84,0,0,0,3.84-3.83" style="fill:#312e81;fill-rule:evenodd"/><path id="Fill-323" d="M71.5,104.5A3.47,3.47,0,1,0,68,108a3.47,3.47,0,0,0,3.47-3.46" style="fill:#312e81;fill-rule:evenodd"/><path id="Fill-325" d="M34.55,104.5A2.55,2.55,0,1,0,32,107a2.55,2.55,0,0,0,2.55-2.54" style="fill:#312e81;fill-rule:evenodd"/><path id="Fill-327" d="M59.15,104.5A3.13,3.13,0,1,0,56,107.62a3.13,3.13,0,0,0,3.13-3.12" style="fill:#312e81;fill-rule:evenodd"/><path id="Fill-329" d="M46.83,104.5A2.82,2.82,0,1,0,44,107.32a2.82,2.82,0,0,0,2.82-2.82" style="fill:#312e81;fill-rule:evenodd"/><path id="Fill-331" d="M34.55,152.47A2.55,2.55,0,1,0,32,155a2.55,2.55,0,0,0,2.55-2.54" style="fill:#312e81;fill-rule:evenodd"/><path id="Fill-333" d="M10.05,152.47A2.08,2.08,0,1,0,8,154.54a2.08,2.08,0,0,0,2.07-2.07" style="fill:#312e81;fill-rule:evenodd"/><path id="Fill-335" d="M22.29,152.47a2.3,2.3,0,1,0-2.3,2.29,2.3,2.3,0,0,0,2.3-2.29" style="fill:#312e81;fill-rule:evenodd"/><path id="Fill-337" d="M28,159.81a2.39,2.39,0,0,0,.41-1.35A2.4,2.4,0,0,0,26,156.05a2.52,2.52,0,0,0-.48,0,2.42,2.42,0,0,0-1.23.66,2,2,0,0,0-.29.36,2.44,2.44,0,0,0-.37.86,2.43,2.43,0,0,0,0,1,2.44,2.44,0,0,0,.37.86,2,2,0,0,0,.29.36,2.42,2.42,0,0,0,1.23.66,2.52,2.52,0,0,0,.48,0,2.4,2.4,0,0,0,2-1.07" style="fill:#312e81;fill-rule:evenodd"/><path id="Fill-339" d="M16.17,158.46A2.19,2.19,0,1,0,14,160.64a2.19,2.19,0,0,0,2.19-2.18" style="fill:#312e81;fill-rule:evenodd"/><path id="Fill-341" d="M40.69,134.48A2.69,2.69,0,1,0,38,137.16a2.68,2.68,0,0,0,2.69-2.68" style="fill:#312e81;fill-rule:evenodd"/><path id="Fill-343" d="M52.48,136.14a3,3,0,0,0,.51-1.66,3,3,0,0,0-3-3,2.91,2.91,0,0,0-.6.06,3.05,3.05,0,0,0-1.51.81,3.13,3.13,0,0,0-.36.44,3,3,0,0,0-.45,1.06,2.91,2.91,0,0,0-.06.6,3.05,3.05,0,0,0,.06.6,3.12,3.12,0,0,0,.45,1.06,4.94,4.94,0,0,0,.36.44,3,3,0,0,0,1.51.8,2.91,2.91,0,0,0,.6.06,3,3,0,0,0,2.46-1.3" style="fill:#312e81;fill-rule:evenodd"/><path id="Fill-345" d="M28,135.83a2.42,2.42,0,0,0,.41-1.35A2.42,2.42,0,0,0,26,132.06a2.52,2.52,0,0,0-.48.05,2.42,2.42,0,0,0-1.23.66,2,2,0,0,0-.29.36,2.37,2.37,0,0,0-.37.86,2.63,2.63,0,0,0-.05.49,2.52,2.52,0,0,0,.05.48,2.41,2.41,0,0,0,.37.87,2,2,0,0,0,.29.36,2.32,2.32,0,0,0,1.71.7,2.41,2.41,0,0,0,2-1.06" style="fill:#312e81;fill-rule:evenodd"/><path id="Fill-347" d="M3.94,134.48a1.94,1.94,0,0,0-.87-1.63,1.89,1.89,0,0,0-1.1-.34,1.81,1.81,0,0,0-.4,0,2,2,0,0,0,0,3.86,2.71,2.71,0,0,0,.4,0,2,2,0,0,0,1.1-.34,1.94,1.94,0,0,0,.87-1.63" style="fill:#312e81;fill-rule:evenodd"/><path id="Fill-349" d="M16.17,134.48A2.19,2.19,0,1,0,14,136.66a2.18,2.18,0,0,0,2.19-2.18" style="fill:#312e81;fill-rule:evenodd"/><path id="Fill-351" d="M3.37,147.86a2.1,2.1,0,0,0,.42-.63,1.91,1.91,0,0,0,.15-.76,1.94,1.94,0,0,0-.87-1.63A2,2,0,0,0,2,144.5a1.81,1.81,0,0,0-.4,0A2,2,0,0,0,0,146.47a1.91,1.91,0,0,0,.16.76,1.93,1.93,0,0,0,.42.63,2,2,0,0,0,1,.54,2.71,2.71,0,0,0,.4,0,2,2,0,0,0,1.1-.34,1.76,1.76,0,0,0,.3-.24" style="fill:#312e81;fill-rule:evenodd"/><path id="Fill-353" d="M40.48,147.51a2.76,2.76,0,0,0,.21-1,2.69,2.69,0,0,0-5.37,0,2.76,2.76,0,0,0,.21,1,2.68,2.68,0,0,0,4.37.85,2.79,2.79,0,0,0,.58-.85" style="fill:#312e81;fill-rule:evenodd"/><path id="Fill-355" d="M16,147.32a2.19,2.19,0,1,0-3.56.69,2.14,2.14,0,0,0,1.54.64,2.2,2.2,0,0,0,2-1.33" style="fill:#312e81;fill-rule:evenodd"/><path id="Fill-357" d="M28,147.82a2.32,2.32,0,0,0,.22-.41,2.29,2.29,0,0,0,.19-.94A2.42,2.42,0,0,0,26,144.05a2.52,2.52,0,0,0-.48,0,2.42,2.42,0,0,0-1.23.66,2,2,0,0,0-.29.36,2.44,2.44,0,0,0-.37.86,2.43,2.43,0,0,0,0,1,2.35,2.35,0,0,0,.14.45,3.3,3.3,0,0,0,.23.41,2,2,0,0,0,.29.36,2.42,2.42,0,0,0,1.23.66,2.52,2.52,0,0,0,.48,0,2.43,2.43,0,0,0,1.72-.71,2.54,2.54,0,0,0,.29-.36" style="fill:#312e81;fill-rule:evenodd"/><path id="Fill-359" d="M22.29,140.47a2.3,2.3,0,1,0-2.3,2.3,2.29,2.29,0,0,0,2.3-2.3" style="fill:#312e81;fill-rule:evenodd"/><path id="Fill-361" d="M34.55,140.47A2.55,2.55,0,1,0,32,143a2.55,2.55,0,0,0,2.55-2.55" style="fill:#312e81;fill-rule:evenodd"/><path id="Fill-363" d="M10.05,140.47A2.08,2.08,0,1,0,8,142.54a2.07,2.07,0,0,0,2.07-2.07" style="fill:#312e81;fill-rule:evenodd"/><path id="Fill-365" d="M46.83,92.51A2.82,2.82,0,1,0,44,95.32a2.82,2.82,0,0,0,2.82-2.81" style="fill:#312e81;fill-rule:evenodd"/><path id="Fill-367" d="M46.83,140.47A2.82,2.82,0,1,0,44,143.29a2.82,2.82,0,0,0,2.82-2.82" style="fill:#312e81;fill-rule:evenodd"/><path id="Fill-369" d="M71.5,80.51A3.47,3.47,0,1,0,68,84a3.47,3.47,0,0,0,3.47-3.47" style="fill:#312e81;fill-rule:evenodd"/><path id="Fill-371" d="M59.15,80.51A3.13,3.13,0,1,0,56,83.64a3.13,3.13,0,0,0,3.13-3.13" style="fill:#312e81;fill-rule:evenodd"/><path id="Fill-373" d="M83.88,80.51A3.84,3.84,0,1,0,80,84.35a3.84,3.84,0,0,0,3.84-3.84" style="fill:#312e81;fill-rule:evenodd"/><path id="Fill-375" d="M96.31,80.51a4.26,4.26,0,1,0-4.26,4.25,4.26,4.26,0,0,0,4.26-4.25" style="fill:#312e81;fill-rule:evenodd"/><path id="Fill-377" d="M77.69,86.51a3.64,3.64,0,1,0-1.61,3,3.63,3.63,0,0,0,1.61-3" style="fill:#312e81;fill-rule:evenodd"/><path id="Fill-379" d="M52.48,88.17A3,3,0,0,0,53,86.51a3,3,0,0,0-3-3,2.91,2.91,0,0,0-.6.06,3.05,3.05,0,0,0-1.51.81,3.83,3.83,0,0,0-.36.44,3.12,3.12,0,0,0-.45,1.06,3,3,0,0,0,0,1.2,3.12,3.12,0,0,0,.45,1.06,3.83,3.83,0,0,0,.36.44,3.05,3.05,0,0,0,1.51.81,2.91,2.91,0,0,0,.6.06,3,3,0,0,0,2.46-1.31" style="fill:#312e81;fill-rule:evenodd"/><path id="Fill-381" d="M101,86.51a3,3,0,1,0-3,3,3,3,0,0,0,3-3" style="fill:#312e81;fill-rule:evenodd"/><path id="Fill-383" d="M90.09,86.51a4,4,0,1,0-4,4,4,4,0,0,0,4-4" style="fill:#312e81;fill-rule:evenodd"/><path id="Fill-385" d="M65.32,86.51A3.3,3.3,0,1,0,62,89.8a3.29,3.29,0,0,0,3.29-3.29" style="fill:#312e81;fill-rule:evenodd"/><path id="Fill-387" d="M59.15,32.4A3.13,3.13,0,1,0,56,35.52a3.13,3.13,0,0,0,3.13-3.12" style="fill:#312e81;fill-rule:evenodd"/><path id="Fill-389" d="M22.29,32.4A2.3,2.3,0,1,0,20,34.69a2.3,2.3,0,0,0,2.3-2.29" style="fill:#312e81;fill-rule:evenodd"/><path id="Fill-391" d="M46.83,32.4A2.82,2.82,0,1,0,44,35.21a2.82,2.82,0,0,0,2.82-2.81" style="fill:#312e81;fill-rule:evenodd"/><path id="Fill-393" d="M10.05,32.4A2.08,2.08,0,1,0,8,34.47a2.08,2.08,0,0,0,2.07-2.07" style="fill:#312e81;fill-rule:evenodd"/><path id="Fill-395" d="M34.55,32.4A2.55,2.55,0,1,0,32,34.94a2.55,2.55,0,0,0,2.55-2.54" style="fill:#312e81;fill-rule:evenodd"/><path id="Fill-397" d="M46.83,44.39A2.82,2.82,0,1,0,44,47.21a2.82,2.82,0,0,0,2.82-2.82" style="fill:#312e81;fill-rule:evenodd"/><path id="Fill-399" d="M34.55,44.39A2.55,2.55,0,1,0,32,46.93a2.55,2.55,0,0,0,2.55-2.54" style="fill:#312e81;fill-rule:evenodd"/><path id="Fill-401" d="M71.5,44.39A3.47,3.47,0,1,0,68,47.85a3.47,3.47,0,0,0,3.47-3.46" style="fill:#312e81;fill-rule:evenodd"/><path id="Fill-403" d="M59.15,44.39A3.13,3.13,0,1,0,56,47.51a3.13,3.13,0,0,0,3.13-3.12" style="fill:#312e81;fill-rule:evenodd"/><path id="Fill-405" d="M22.29,44.39a2.3,2.3,0,1,0-2.3,2.3,2.3,2.3,0,0,0,2.3-2.3" style="fill:#312e81;fill-rule:evenodd"/><path id="Fill-407" d="M16,39.24a2.19,2.19,0,1,0-4,0,2.06,2.06,0,0,0,.47.69,2.14,2.14,0,0,0,1.54.64,2.17,2.17,0,0,0,1.55-.64,2.06,2.06,0,0,0,.47-.69" style="fill:#312e81;fill-rule:evenodd"/><path id="Fill-409" d="M28,39.74a2,2,0,0,0,.22-.41,2.29,2.29,0,0,0,.19-.94A2.42,2.42,0,0,0,26,36a2.52,2.52,0,0,0-.48.05,2.42,2.42,0,0,0-1.23.66A2,2,0,0,0,24,37a2.44,2.44,0,0,0-.37.86,2.43,2.43,0,0,0,0,1,2.15,2.15,0,0,0,.14.45,2.71,2.71,0,0,0,.23.41,2,2,0,0,0,.29.36,2.42,2.42,0,0,0,1.23.66,2.52,2.52,0,0,0,.48.05,2.43,2.43,0,0,0,1.72-.71,2.54,2.54,0,0,0,.29-.36" style="fill:#312e81;fill-rule:evenodd"/><path id="Fill-411" d="M40.48,39.43a2.76,2.76,0,0,0,.21-1,2.69,2.69,0,0,0-5.37,0,2.76,2.76,0,0,0,.21,1,2.68,2.68,0,0,0,4.37.85,2.79,2.79,0,0,0,.58-.85" style="fill:#312e81;fill-rule:evenodd"/><path id="Fill-413" d="M52.48,40.05a2.7,2.7,0,0,0,.27-.5,2.94,2.94,0,0,0-.27-2.82A3,3,0,0,0,50,35.42a3.81,3.81,0,0,0-.6.06,3.05,3.05,0,0,0-1.51.81,4.94,4.94,0,0,0-.36.44,3.12,3.12,0,0,0-.45,1.06,3.05,3.05,0,0,0-.06.6,2.91,2.91,0,0,0,.06.6,2.81,2.81,0,0,0,.18.56,3.46,3.46,0,0,0,.27.5,3.83,3.83,0,0,0,.36.44,3.05,3.05,0,0,0,1.51.81,2.91,2.91,0,0,0,.6.06,3,3,0,0,0,2.1-.87,3.83,3.83,0,0,0,.36-.44" style="fill:#312e81;fill-rule:evenodd"/><path id="Fill-415" d="M65.06,39.67a3.22,3.22,0,0,0,.26-1.28,3.3,3.3,0,0,0-6.59,0,3.29,3.29,0,0,0,1,2.33,3.3,3.3,0,0,0,4.65,0,3.42,3.42,0,0,0,.71-1" style="fill:#312e81;fill-rule:evenodd"/><path id="Fill-417" d="M40.63,15a2.48,2.48,0,0,0,.06-.54,2.69,2.69,0,0,0-5.37,0,2.48,2.48,0,0,0,.06.54,2.68,2.68,0,0,0,5.25,0" style="fill:#312e81;fill-rule:evenodd"/><path id="Fill-419" d="M28,15.76a2.4,2.4,0,0,0,.36-.87,1.91,1.91,0,0,0,.05-.48A2.42,2.42,0,0,0,26,12a2.52,2.52,0,0,0-.48,0,2.42,2.42,0,0,0-1.23.66,2,2,0,0,0-.29.36,2.37,2.37,0,0,0-.37.86,2.63,2.63,0,0,0-.05.49,2.52,2.52,0,0,0,.05.48,2.41,2.41,0,0,0,.37.87,2,2,0,0,0,.29.36,2.32,2.32,0,0,0,1.71.7,2.41,2.41,0,0,0,2-1.06" style="fill:#312e81;fill-rule:evenodd"/><path id="Fill-421" d="M3.9,14.8a1.67,1.67,0,0,0,0-.39,1.94,1.94,0,0,0-.87-1.63A1.89,1.89,0,0,0,2,12.44a1.81,1.81,0,0,0-.4,0A2,2,0,0,0,0,14.41a1.67,1.67,0,0,0,0,.39,2,2,0,0,0,1.53,1.54,2.71,2.71,0,0,0,.4,0A2,2,0,0,0,3.07,16,1.93,1.93,0,0,0,3.9,14.8" style="fill:#312e81;fill-rule:evenodd"/><path id="Fill-423" d="M16.12,14.85A2.19,2.19,0,1,0,14,16.59a2.2,2.2,0,0,0,2.14-1.74" style="fill:#312e81;fill-rule:evenodd"/><path id="Fill-425" d="M52.48,28.06A3,3,0,0,0,50,23.43a2.91,2.91,0,0,0-.6.06,3.05,3.05,0,0,0-1.51.81,3.83,3.83,0,0,0-.36.44,3.12,3.12,0,0,0-.45,1.06,3,3,0,0,0-.06.6,3.05,3.05,0,0,0,.06.6,3.12,3.12,0,0,0,.45,1.06,3.83,3.83,0,0,0,.36.44,3.05,3.05,0,0,0,1.51.81,2.91,2.91,0,0,0,.6.06,3,3,0,0,0,2.46-1.31" style="fill:#312e81;fill-rule:evenodd"/><path id="Fill-427" d="M3.94,26.4a1.94,1.94,0,0,0-.87-1.63A2,2,0,0,0,2,24.43a2.71,2.71,0,0,0-.4,0,2,2,0,0,0,0,3.86,1.81,1.81,0,0,0,.4,0A2,2,0,0,0,3.07,28a1.94,1.94,0,0,0,.87-1.63" style="fill:#312e81;fill-rule:evenodd"/><path id="Fill-429" d="M28,27.75a2.43,2.43,0,0,0,0-2.7A2.42,2.42,0,0,0,26,24a2.52,2.52,0,0,0-.48.05,2.42,2.42,0,0,0-1.23.66,2,2,0,0,0-.29.36,2.44,2.44,0,0,0-.37.86,2.43,2.43,0,0,0,0,1,2.44,2.44,0,0,0,.37.86,2,2,0,0,0,.29.36,2.42,2.42,0,0,0,1.23.66,2.52,2.52,0,0,0,.48.05,2.42,2.42,0,0,0,2-1.07" style="fill:#312e81;fill-rule:evenodd"/><path id="Fill-431" d="M16.17,26.4A2.19,2.19,0,1,0,14,28.58a2.19,2.19,0,0,0,2.19-2.18" style="fill:#312e81;fill-rule:evenodd"/><path id="Fill-433" d="M40.69,26.4A2.69,2.69,0,1,0,38,29.08a2.68,2.68,0,0,0,2.69-2.68" style="fill:#312e81;fill-rule:evenodd"/><path id="Fill-435" d="M10.05,20.4A2.08,2.08,0,1,0,8,22.48a2.07,2.07,0,0,0,2.07-2.08" style="fill:#312e81;fill-rule:evenodd"/><path id="Fill-437" d="M22.29,20.4A2.3,2.3,0,1,0,20,22.7a2.3,2.3,0,0,0,2.3-2.3" style="fill:#312e81;fill-rule:evenodd"/><path id="Fill-439" d="M34.55,20.4A2.55,2.55,0,1,0,32,23a2.55,2.55,0,0,0,2.55-2.55" style="fill:#312e81;fill-rule:evenodd"/><path id="Fill-441" d="M46.83,20.4A2.82,2.82,0,1,0,44,23.22a2.82,2.82,0,0,0,2.82-2.82" style="fill:#312e81;fill-rule:evenodd"/><path id="Fill-443" d="M59.15,68.37A3.13,3.13,0,1,0,56,71.5a3.13,3.13,0,0,0,3.13-3.13" style="fill:#312e81;fill-rule:evenodd"/><path id="Fill-445" d="M71.5,68.37A3.47,3.47,0,1,0,68,71.83a3.47,3.47,0,0,0,3.47-3.46" style="fill:#312e81;fill-rule:evenodd"/><path id="Fill-447" d="M83.88,68.37A3.84,3.84,0,1,0,80,72.21a3.83,3.83,0,0,0,3.84-3.84" style="fill:#312e81;fill-rule:evenodd"/><path id="Fill-449" d="M96.31,68.37a4.26,4.26,0,1,0-4.26,4.25,4.25,4.25,0,0,0,4.26-4.25" style="fill:#312e81;fill-rule:evenodd"/><path id="Fill-451" d="M46.83,68.37A2.82,2.82,0,1,0,44,71.19a2.82,2.82,0,0,0,2.82-2.82" style="fill:#312e81;fill-rule:evenodd"/><path id="Fill-453" d="M83.88,80.36A3.84,3.84,0,1,0,80,84.2a3.83,3.83,0,0,0,3.84-3.84" style="fill:#312e81;fill-rule:evenodd"/><path id="Fill-455" d="M71.5,80.36A3.47,3.47,0,1,0,68,83.82a3.47,3.47,0,0,0,3.47-3.46" style="fill:#312e81;fill-rule:evenodd"/><path id="Fill-457" d="M96.31,80.36a4.26,4.26,0,1,0-4.26,4.25,4.26,4.26,0,0,0,4.26-4.25" style="fill:#312e81;fill-rule:evenodd"/><path id="Fill-459" d="M59.15,80.36A3.13,3.13,0,1,0,56,83.49a3.13,3.13,0,0,0,3.13-3.13" style="fill:#312e81;fill-rule:evenodd"/><path id="Fill-461" d="M52.48,76A3,3,0,0,0,53,74.37a3,3,0,0,0-3-3,2.91,2.91,0,0,0-.6.06,3.05,3.05,0,0,0-1.51.81,3.13,3.13,0,0,0-.36.44,3,3,0,0,0-.45,1.06,2.91,2.91,0,0,0-.06.6,3.05,3.05,0,0,0,.06.6A3.12,3.12,0,0,0,47.55,76a3.73,3.73,0,0,0,.36.43,3,3,0,0,0,2.11.87A3,3,0,0,0,52.48,76" style="fill:#312e81;fill-rule:evenodd"/><path id="Fill-463" d="M77.69,74.37a3.63,3.63,0,0,0-1.61-3,3.59,3.59,0,0,0-2-.62,3.64,3.64,0,1,0,3.65,3.64" style="fill:#312e81;fill-rule:evenodd"/><path id="Fill-465" d="M65.32,74.37A3.3,3.3,0,1,0,62,77.66a3.29,3.29,0,0,0,3.29-3.29" style="fill:#312e81;fill-rule:evenodd"/><path id="Fill-467" d="M101,74.37a3,3,0,1,0-3,3,3,3,0,0,0,3-3" style="fill:#312e81;fill-rule:evenodd"/><path id="Fill-469" d="M90.09,74.37a4,4,0,1,0-4,4,4,4,0,0,0,4-4" style="fill:#312e81;fill-rule:evenodd"/><path id="Fill-471" d="M40.69,50.38A2.69,2.69,0,1,0,38,53.06a2.67,2.67,0,0,0,2.69-2.68" style="fill:#312e81;fill-rule:evenodd"/><path id="Fill-473" d="M52.48,52A2.94,2.94,0,0,0,53,50.38a3,3,0,0,0-3-3,2.91,2.91,0,0,0-.6.06,3,3,0,0,0-1.51.81,3.73,3.73,0,0,0-.36.43,3.08,3.08,0,0,0-.45,1.07,3,3,0,0,0,0,1.19A3,3,0,0,0,47.55,52a3.13,3.13,0,0,0,.36.44,3.05,3.05,0,0,0,1.51.81,2.91,2.91,0,0,0,.6.06A3,3,0,0,0,52.48,52" style="fill:#312e81;fill-rule:evenodd"/><path id="Fill-475" d="M77.69,50.38A3.63,3.63,0,1,0,74,54a3.66,3.66,0,0,0,3.65-3.65" style="fill:#312e81;fill-rule:evenodd"/><path id="Fill-477" d="M28,51.73a2.39,2.39,0,0,0,.41-1.35A2.4,2.4,0,0,0,26,48a1.91,1.91,0,0,0-.48.05,2.35,2.35,0,0,0-1.23.66A1.64,1.64,0,0,0,24,49a2.41,2.41,0,0,0-.37.87,2.52,2.52,0,0,0-.05.48,2.63,2.63,0,0,0,.05.49,2.29,2.29,0,0,0,.37.86,2,2,0,0,0,.29.36,2.42,2.42,0,0,0,1.23.66,2.52,2.52,0,0,0,.48,0,2.4,2.4,0,0,0,2-1.07" style="fill:#312e81;fill-rule:evenodd"/><path id="Fill-479" d="M65.32,50.38A3.3,3.3,0,1,0,62,53.67a3.28,3.28,0,0,0,3.29-3.29" style="fill:#312e81;fill-rule:evenodd"/><path id="Fill-481" d="M65.06,63.65a3.18,3.18,0,0,0,.26-1.28,3.3,3.3,0,0,0-6.59,0A3.36,3.36,0,0,0,59,63.65a3.3,3.3,0,0,0,6.07,0" style="fill:#312e81;fill-rule:evenodd"/><path id="Fill-483" d="M52.48,64a2.19,2.19,0,0,0,.27-.5A3,3,0,0,0,53,62.37a2.93,2.93,0,0,0-.51-1.65A3,3,0,0,0,50,59.41a2.91,2.91,0,0,0-.6.06,3.05,3.05,0,0,0-1.51.81,3.13,3.13,0,0,0-.36.44,3,3,0,0,0-.45,1.06,3,3,0,0,0,0,1.19,2.62,2.62,0,0,0,.18.56,2.65,2.65,0,0,0,.27.5,3.13,3.13,0,0,0,.36.44,3,3,0,0,0,1.51.81,2.91,2.91,0,0,0,.6.06,3,3,0,0,0,2.1-.87,3.13,3.13,0,0,0,.36-.44" style="fill:#312e81;fill-rule:evenodd"/><path id="Fill-485" d="M76.62,65a3.54,3.54,0,0,0,.78-1.16,3.65,3.65,0,1,0-7-1.42,3.5,3.5,0,0,0,.29,1.42,3.63,3.63,0,0,0,2.62,2.15,3.61,3.61,0,0,0,2.78-.54,4.6,4.6,0,0,0,.54-.45" style="fill:#312e81;fill-rule:evenodd"/><path id="Fill-487" d="M89.77,64a4,4,0,0,0,.32-1.58,4,4,0,0,0-8.09,0,4,4,0,0,0,1.19,2.86,4.06,4.06,0,0,0,5.72,0A4.12,4.12,0,0,0,89.77,64" style="fill:#312e81;fill-rule:evenodd"/><path id="Fill-489" d="M40.48,63.42a2.81,2.81,0,0,0,.21-1.05,2.69,2.69,0,0,0-5.37,0,2.81,2.81,0,0,0,.21,1.05,2.62,2.62,0,0,0,.58.85,2.69,2.69,0,0,0,3.79,0,2.79,2.79,0,0,0,.58-.85" style="fill:#312e81;fill-rule:evenodd"/><path id="Fill-491" d="M34.55,56.38A2.55,2.55,0,1,0,32,58.92a2.55,2.55,0,0,0,2.55-2.54" style="fill:#312e81;fill-rule:evenodd"/><path id="Fill-493" d="M59.15,56.38A3.13,3.13,0,1,0,56,59.5a3.12,3.12,0,0,0,3.13-3.12" style="fill:#312e81;fill-rule:evenodd"/><path id="Fill-495" d="M46.83,56.38A2.82,2.82,0,1,0,44,59.2a2.82,2.82,0,0,0,2.82-2.82" style="fill:#312e81;fill-rule:evenodd"/><path id="Fill-497" d="M83.88,56.38A3.84,3.84,0,1,0,80,60.21a3.84,3.84,0,0,0,3.84-3.83" style="fill:#312e81;fill-rule:evenodd"/><path id="Fill-499" d="M71.5,56.38A3.47,3.47,0,1,0,68,59.84a3.47,3.47,0,0,0,3.47-3.46" style="fill:#312e81;fill-rule:evenodd"/><path id="Fill-501" d="M34.55,8.41A2.55,2.55,0,1,0,32,11a2.55,2.55,0,0,0,2.55-2.54" style="fill:#312e81;fill-rule:evenodd"/><path id="Fill-503" d="M10.05,8.41A2.08,2.08,0,1,0,8,10.48a2.07,2.07,0,0,0,2.07-2.07" style="fill:#312e81;fill-rule:evenodd"/><path id="Fill-505" d="M22.29,8.41a2.3,2.3,0,1,0-2.3,2.3,2.29,2.29,0,0,0,2.3-2.3" style="fill:#312e81;fill-rule:evenodd"/><path id="Fill-507" d="M16.17,2.42A2.19,2.19,0,1,0,14,4.6a2.18,2.18,0,0,0,2.19-2.18" style="fill:#312e81;fill-rule:evenodd"/><path id="Fill-509" d="M28,3.77a2.42,2.42,0,0,0,.41-1.35A2.42,2.42,0,0,0,26,0a2.52,2.52,0,0,0-.48.05,2.42,2.42,0,0,0-1.23.66,2,2,0,0,0-.29.36,2.29,2.29,0,0,0-.37.86,2.63,2.63,0,0,0-.05.49,2.52,2.52,0,0,0,.05.48,2.41,2.41,0,0,0,.37.87,1.64,1.64,0,0,0,.29.35,2.35,2.35,0,0,0,1.23.66,1.91,1.91,0,0,0,.48,0,2.41,2.41,0,0,0,2-1.06" style="fill:#312e81;fill-rule:evenodd"/><path id="Fill-2" d="M295.17,60.77a161.66,161.66,0,0,1-9.35-21.12H285s.87,9.83.87,26.93l.44,74.34a79.61,79.61,0,0,1-14.35,1.29,60.79,60.79,0,0,1-13.26-1.29V19.32a205,205,0,0,1,23-1.29A156.45,156.45,0,0,1,303,19.32L343.2,98.18a185.78,185.78,0,0,1,10.44,23.87h.87s-.87-10.8-.87-27.41l-.44-75.16a78.93,78.93,0,0,1,13.91-1.12,74.89,74.89,0,0,1,13.7,1.12V140.92A159.67,159.67,0,0,1,358,142.53a130.32,130.32,0,0,1-21.51-1.61Z" style="fill:#312e81;fill-rule:evenodd"/><path id="Fill-4" d="M415.37,90.93h38.91V87.22c0-6.29-3.69-13.55-17.39-13.55-14.78,0-21.08,6.94-21.52,17.26Zm-.43,15.64c0,12.26,10.43,18.22,25.43,18.22,18.26,0,30.65-3.38,30.65-3.38a23.09,23.09,0,0,1,6.52,15.8s-13.48,5.32-37.17,5.32c-37.17,0-52.17-16-52.17-43.86,0-27.26,17.17-42.09,50.21-42.09,30,0,43.91,16.45,43.91,38.54a85.66,85.66,0,0,1-.87,11.45Z" style="fill:#312e81;fill-rule:evenodd"/><path id="Fill-6" d="M648.82,140.92s-4.34,1.29-12.82,1.29a62.81,62.81,0,0,1-13.7-1.29V58.67a62.41,62.41,0,0,1,13.05-1.29,69.62,69.62,0,0,1,13.47,1.29Zm-28-103.21A25.21,25.21,0,0,1,622.09,29,98.13,98.13,0,0,1,636,28a83.45,83.45,0,0,1,13.26,1,33.15,33.15,0,0,1,1.3,9.19,24.46,24.46,0,0,1-1.3,8.39,113.42,113.42,0,0,1-14.35,1,77.47,77.47,0,0,1-12.82-1,26.81,26.81,0,0,1-1.31-8.87Z" style="fill:#312e81;fill-rule:evenodd"/><path id="Fill-8" d="M701.86,124.63c15.22,0,20.65-10.16,20.65-25.48,0-15-5.43-24.19-20.65-24.19s-20.43,8.39-20.43,23.55,5.21,26.12,20.43,26.12m0-67.89c36.95,0,46.95,16.45,46.95,41.28,0,27.9-14.34,44.67-46.95,44.67S655.13,125.92,655.13,98c0-24.83,9.78-41.28,46.73-41.28" style="fill:#312e81;fill-rule:evenodd"/><path id="Fill-10" d="M782.07,76.9v64a83.1,83.1,0,0,1-13.7,1.29,70.72,70.72,0,0,1-13-1.29V58.67s18.48-1.61,40.22-1.61c34.56,0,45.42,9.52,45.42,34.67v49.19a73.4,73.4,0,0,1-13.69,1.29,62.25,62.25,0,0,1-13-1.29V91.25c0-11.61-4.57-14.84-18.69-14.84-7.4,0-13.48.49-13.48.49" style="fill:#312e81;fill-rule:evenodd"/><path id="Fill-12" d="M905.32,125.28V105.92l-17.83.33c-12.82.16-14.13,4.83-14.13,9.83,0,5.16,2,10.17,14.35,10.17,8.7,0,17.61-1,17.61-1m-58-9.2c0-15.8,10.22-24.35,38-25l20-.49V85.93c0-8.39-5.87-11.13-18.7-11.13a94.21,94.21,0,0,0-23.91,3.55s-9.34-5.81-10.64-16.29c0,0,15.86-5,37.81-5,25.87,0,42.17,6.93,42.17,27.58v54.5a356.15,356.15,0,0,1-46.51,3.39c-28.26,0-38.26-10.48-38.26-26.45" style="fill:#312e81;fill-rule:evenodd"/><path id="Fill-511" d="M611.27,140.75H578.35L544.48,110l0,0c-.6-.53-1.19-1.07-1.79-1.59l-.06-.07-12.14-10,18.38-15.65s0,0,0-.06l6.64-5.9L574.67,61h33.22l-46.8,37.25,22.45,18.57,8.71,6.84" style="fill:#312e81;fill-rule:evenodd"/><path id="Fill-513" d="M481,140.75H514L547.82,110l0,0,1.78-1.59.06-.07,12.14-10L543.46,82.66s0,0,0-.06l-6.63-5.9L517.63,61H484.41l46.8,37.25-22.45,18.57-8.7,6.84" style="fill:#312e81;fill-rule:evenodd"/></g></g></svg>