<svg id="Layer_1" data-name="Layer 1" xmlns="http://www.w3.org/2000/svg" viewBox="0 0 152.21 32"><path d="M27,9.78a2.19,2.19,0,0,0-2.24,0l-5.14,3.11-3.5,2L10.94,18A2.19,2.19,0,0,1,8.7,18L4.61,15.59a2.33,2.33,0,0,1-1.12-2V8.83a2.21,2.21,0,0,1,1.12-2l4-2.37a2.21,2.21,0,0,1,2.25,0l4,2.37a2.33,2.33,0,0,1,1.12,2v3.11l3.49-2.1V6.73a2.22,2.22,0,0,0-1.12-2L10.94.3A2.24,2.24,0,0,0,8.7.3L1.12,4.77A2.22,2.22,0,0,0,0,6.73v9a2.21,2.21,0,0,0,1.12,2L8.7,22.16a2.24,2.24,0,0,0,2.24,0l5.14-3.05,3.5-2.1,5.14-3A2.19,2.19,0,0,1,27,14l4,2.37a2.33,2.33,0,0,1,1.12,2v4.8a2.22,2.22,0,0,1-1.12,2L27,27.5a2.19,2.19,0,0,1-2.24,0l-4-2.37a2.33,2.33,0,0,1-1.12-2V20.06l-3.5,2.1v3.11a2.22,2.22,0,0,0,1.12,2l7.58,4.47a2.24,2.24,0,0,0,2.24,0l7.58-4.47a2.35,2.35,0,0,0,1.12-2v-9a2.19,2.19,0,0,0-1.12-2Z" style="fill:#312e81"/><path d="M49.64,29.12V21.65a5,5,0,0,0,4,1.59c4.32,0,7.24-3.09,7.24-7.8S58.16,7.64,54,7.64a5.23,5.23,0,0,0-4.32,1.89V7.88H45.5V29.12Zm3.46-9.48c-2.24,0-3.7-1.68-3.7-4.2s1.46-4.23,3.7-4.23,3.66,1.68,3.66,4.23S55.27,19.64,53.1,19.64Z" style="fill:#312e81"/><path d="M70.23,23.24a7.6,7.6,0,0,0,7.92-7.8,7.92,7.92,0,0,0-15.84,0A7.6,7.6,0,0,0,70.23,23.24Zm0-3.6c-2.23,0-3.75-1.71-3.75-4.2s1.52-4.23,3.75-4.23S74,12.92,74,15.44,72.47,19.64,70.23,19.64Z" style="fill:#312e81"/><path d="M84.79,23V1.31H80.65V23Z" style="fill:#312e81"/><path d="M97.23,7.88,94.1,17.63,91,7.88H86.72l5.45,15L90,29.12h4L96,22.94l5.45-15.06Z" style="fill:#312e81"/><path d="M113.11,9.38A5.2,5.2,0,0,0,109,7.64c-4.37,0-7,3.09-7,7.8s2.65,7.8,7.08,7.8a5,5,0,0,0,4.11-1.77v2a2.21,2.21,0,0,1-2.17,2.4h-6.91v3.27h7.56c3.39,0,5.66-2.07,5.66-5.22v-16h-4.17Zm-3.42,10.26c-2.21,0-3.67-1.65-3.67-4.2s1.46-4.23,3.67-4.23,3.69,1.68,3.69,4.23S111.92,19.64,109.69,19.64Z" style="fill:#312e81"/><path d="M127.71,23.24a7.6,7.6,0,0,0,7.92-7.8,7.92,7.92,0,0,0-15.84,0A7.6,7.6,0,0,0,127.71,23.24Zm0-3.6c-2.23,0-3.75-1.71-3.75-4.2s1.52-4.23,3.75-4.23,3.75,1.71,3.75,4.23S129.94,19.64,127.71,19.64Z" style="fill:#312e81"/><path d="M142.06,23V14.72a3.12,3.12,0,0,1,3.1-3.36A2.89,2.89,0,0,1,148,14.51V23h4.17V13.58c0-3.48-2.2-5.94-5.59-5.94A5,5,0,0,0,142.06,10V7.88h-4.17V23Z" style="fill:#312e81"/></svg>